<svg width="475" height="585" viewBox="0 0 475 585" fill="none" xmlns="http://www.w3.org/2000/svg">
<path d="M335.198 76.0957H422.866C422.866 76.0957 415.114 61.9877 392.548 64.041C370.996 66.0024 369.9 57.101 358.942 56.005C347.982 54.909 338.85 63.3104 335.198 76.0957Z" fill="#E0E0E0"/>
<path d="M106.051 307.855C106.051 307.855 97.2699 312.605 110.055 330.948C122.842 349.292 131.162 358.099 131.162 358.099C131.162 358.099 133.579 362.433 129.822 363.676C126.065 364.92 117.387 364.735 116.321 369.691C115.213 374.829 119.403 378.956 127.169 382.012C134.934 385.068 151.701 392.387 153.214 393.055C154.699 393.712 156.367 395.653 153.942 396.911C151.519 398.167 132.697 402.792 135.426 411.593C138.155 420.392 161.187 425.352 163.694 425.941C166.201 426.533 166.91 427.463 166.895 428.797C166.882 430.131 160.409 431.089 155.109 432.623C149.81 434.159 143.934 436.867 145.934 441.812C147.934 446.757 162.409 455.731 194.378 454.475L209.154 452.923L215.446 439.391C227.147 409.612 223.433 392.993 219.421 389.477C215.409 385.961 210.918 390.62 207.726 395.12C204.534 399.62 201.499 405.419 200.235 404.993C198.971 404.567 198.326 403.592 198.593 401.031C198.859 398.468 201.75 375.087 194.338 369.615C186.926 364.144 176.367 380.397 174.383 382.272C172.398 384.149 171.113 381.936 170.982 380.317C170.85 378.668 169.451 360.427 169.119 352.088C168.786 343.751 166.269 338.436 161.051 337.791C156.021 337.169 153.339 345.424 150.93 348.564C148.521 351.704 145.222 347.995 145.222 347.995C145.222 347.995 139.642 337.241 126.523 319.133C113.407 301.027 105.881 307.964 105.881 307.964" fill="#EBEBEB"/>
<path d="M210.393 456.277C200.812 442.941 184.18 418.952 169.794 398.429C155.414 377.916 142.377 359.353 132.865 345.969C128.109 339.295 124.257 333.887 121.582 330.132C120.26 328.272 119.229 326.823 118.517 325.821C118.18 325.339 117.918 324.964 117.729 324.695C117.554 324.439 117.474 324.301 117.474 324.301C117.474 324.301 117.58 324.42 117.768 324.667C117.965 324.929 118.238 325.296 118.593 325.767C119.321 326.756 120.376 328.189 121.728 330.027C124.446 333.727 128.341 339.109 133.13 345.78C142.712 359.116 155.792 377.649 170.172 398.165C184.558 418.688 201.145 442.704 210.658 456.088" fill="#E0E0E0"/>
<path d="M128.448 370.437C128.454 370.406 128.833 370.458 129.513 370.581C130.194 370.699 131.172 370.902 132.378 371.162C134.79 371.687 138.104 372.499 141.744 373.461C145.329 374.421 148.572 375.291 151.052 375.955C152.172 376.247 153.116 376.494 153.876 376.693C154.544 376.863 154.91 376.973 154.904 377.005C154.897 377.035 154.518 376.986 153.837 376.869C153.157 376.746 152.177 376.545 150.974 376.271C148.566 375.722 145.265 374.867 141.626 373.907C138.034 372.971 134.788 372.127 132.304 371.479C131.181 371.193 130.236 370.951 129.474 370.755C128.808 370.579 128.441 370.467 128.448 370.437Z" fill="#E0E0E0"/>
<path d="M155.78 375.926C155.656 375.898 157.026 368.995 158.842 360.507C160.66 352.016 162.232 345.158 162.357 345.183C162.481 345.211 161.11 352.114 159.294 360.604C157.477 369.091 155.904 375.952 155.78 375.926Z" fill="#E0E0E0"/>
<path d="M176.447 408.431C176.419 408.415 176.588 408.063 176.919 407.44C177.298 406.736 177.771 405.858 178.334 404.815C179.524 402.598 181.155 399.528 182.831 396.076C184.515 392.627 185.93 389.452 186.936 387.146C187.411 386.06 187.81 385.146 188.131 384.414C188.416 383.77 188.588 383.419 188.618 383.431C188.647 383.443 188.532 383.815 188.298 384.48C188.062 385.146 187.706 386.1 187.238 387.271C186.307 389.615 184.934 392.819 183.246 396.279C181.564 399.74 179.883 402.794 178.618 404.975C177.98 406.063 177.455 406.938 177.075 407.53C176.696 408.126 176.475 408.447 176.447 408.431Z" fill="#E0E0E0"/>
<path d="M150.632 408.906C150.631 408.876 150.989 408.833 151.639 408.785C152.387 408.742 153.307 408.689 154.391 408.626C156.716 408.512 159.928 408.385 163.476 408.274C167.027 408.164 170.241 408.089 172.568 408.058C173.655 408.053 174.575 408.049 175.324 408.045C175.976 408.053 176.336 408.072 176.337 408.104C176.339 408.136 175.98 408.177 175.329 408.225C174.581 408.268 173.663 408.322 172.577 408.384C170.253 408.498 167.041 408.625 163.492 408.736C159.943 408.846 156.728 408.922 154.401 408.952C153.315 408.957 152.395 408.962 151.644 408.965C150.993 408.958 150.632 408.938 150.632 408.906Z" fill="#E0E0E0"/>
<path d="M165.231 439.921C165.23 439.89 165.69 439.84 166.522 439.78C167.44 439.722 168.624 439.649 170.047 439.561C173.026 439.398 177.142 439.205 181.688 439.018C186.236 438.834 190.355 438.692 193.336 438.612C194.762 438.582 195.948 438.56 196.868 438.541C197.703 438.534 198.166 438.546 198.166 438.577C198.167 438.61 197.708 438.66 196.876 438.721C195.956 438.777 194.772 438.849 193.35 438.938C190.371 439.101 186.256 439.294 181.707 439.48C177.16 439.666 173.043 439.808 170.06 439.888C168.636 439.916 167.45 439.941 166.528 439.958C165.694 439.965 165.232 439.953 165.231 439.921Z" fill="#E0E0E0"/>
<path d="M197.37 438.388C197.342 438.372 197.545 437.92 197.937 437.118C198.369 436.243 198.93 435.102 199.61 433.726C201.018 430.86 202.95 426.895 204.958 422.458C206.974 418.022 208.692 413.959 209.916 411.008C210.504 409.591 210.993 408.416 211.368 407.516C211.713 406.692 211.918 406.242 211.949 406.252C211.978 406.264 211.829 406.736 211.534 407.58C211.24 408.424 210.794 409.639 210.218 411.131C209.07 414.114 207.397 418.203 205.378 422.647C203.366 427.092 201.385 431.043 199.9 433.874C199.154 435.287 198.538 436.424 198.096 437.202C197.656 437.979 197.398 438.403 197.37 438.388Z" fill="#E0E0E0"/>
<path d="M321.362 241.617C305.488 223.821 307.014 198.13 313.02 176.134C314.022 172.462 314.541 168.464 317.069 165.633C319.601 162.804 324.234 161.557 327.178 163.901C329.621 165.846 330.061 169.328 330.973 172.337C332.185 176.34 334.545 179.973 337.69 182.684C339.757 184.465 342.497 185.904 345.126 185.173C348.737 184.166 350.158 179.845 351.008 176.157C352.59 169.285 354.173 162.414 355.754 155.544C356.604 151.857 357.484 148.096 359.456 144.873C361.428 141.65 364.726 139.004 368.461 138.852C372.197 138.701 376.049 141.746 375.934 145.525C375.888 147.097 375.213 148.581 374.953 150.133C374.693 151.686 375.005 153.545 376.356 154.314C377.724 155.094 379.444 154.4 380.798 153.582C385.48 150.766 389.192 146.589 392.729 142.397C396.268 138.205 399.761 133.885 404.168 130.646C408.576 127.409 414.108 125.326 419.449 126.277C424.793 127.228 429.638 131.812 429.745 137.304C429.852 142.81 425.577 147.358 421.286 150.78C414.922 155.854 407.834 159.997 400.314 163.034C398.958 163.584 397.49 164.176 396.724 165.434C395.342 167.7 397.09 170.688 399.324 172.069C401.85 173.633 404.894 174.053 407.685 175.07C410.476 176.089 413.285 178.092 413.729 181.061C414.345 185.181 410.265 188.38 406.557 190.229C399.13 193.934 391.082 196.344 382.874 197.321C379.932 197.67 376.876 197.865 374.241 199.25C371.606 200.637 369.504 203.633 370.21 206.537C370.914 209.446 374.105 211.078 377.066 211.224C380.026 211.369 382.93 210.43 385.876 210.052C391.388 209.34 397.837 211.236 400.042 216.376C401.492 219.756 400.73 223.801 398.842 226.972C396.954 230.144 394.07 232.577 391.106 234.749C380.744 242.341 368.55 247.541 355.849 248.83C343.15 250.12 332.014 248.645 321.362 241.617Z" fill="#F5F5F5"/>
<path d="M324.577 243.756C327.461 235.161 324.444 239.476 330.38 229.072C336.293 218.653 343.723 207.773 351.885 196.659C353.937 193.888 355.963 191.149 357.96 188.451C359.959 185.763 361.941 183.095 364.044 180.608C368.223 175.611 372.624 171.127 376.935 167C381.243 162.869 385.484 159.108 389.473 155.619C393.472 152.137 397.261 148.963 400.837 146.217C407.977 140.696 414.251 136.933 418.661 134.525C420.868 133.315 422.607 132.431 423.796 131.849C424.367 131.573 424.815 131.357 425.152 131.195C425.459 131.051 425.617 130.983 425.623 130.993C425.629 131.005 425.48 131.095 425.183 131.259C424.853 131.437 424.416 131.673 423.859 131.975C422.693 132.599 420.973 133.52 418.791 134.764C414.427 137.243 408.216 141.057 401.136 146.611C397.588 149.375 393.827 152.563 389.849 156.059C385.88 159.564 381.66 163.337 377.373 167.468C373.087 171.597 368.713 176.076 364.563 181.051C362.477 183.528 360.515 186.173 358.512 188.871C356.516 191.568 354.493 194.305 352.443 197.075C344.288 208.18 336.861 219.025 330.933 229.393C324.988 239.748 327.976 235.372 325.043 243.916" fill="#E0E0E0"/>
<path d="M364.243 180.627C364.196 180.623 364.203 180.035 364.256 178.971C364.303 177.907 364.423 176.374 364.599 174.478C364.945 170.69 365.604 165.474 366.352 159.726C367.103 153.975 367.684 148.766 367.973 144.982C368.123 143.091 368.229 141.558 368.288 140.498C368.355 139.438 368.413 138.851 368.461 138.851C368.509 138.852 368.543 139.439 368.559 140.504C368.583 141.568 368.551 143.108 368.463 145.01C368.3 148.815 367.792 154.056 367.043 159.812C366.289 165.482 365.608 170.611 365.088 174.53C364.864 176.302 364.676 177.795 364.525 178.994C364.388 180.048 364.292 180.631 364.243 180.627Z" fill="#E0E0E0"/>
<path d="M413.67 182.992C413.659 183.04 412.968 182.959 411.727 182.771C410.487 182.592 408.695 182.323 406.47 182.06C402.024 181.502 395.855 180.944 389.023 180.628C382.187 180.323 375.99 180.311 371.508 180.431C369.264 180.475 367.451 180.56 366.198 180.611C364.943 180.667 364.248 180.675 364.243 180.627C364.239 180.578 364.927 180.478 366.18 180.338C367.43 180.203 369.246 180.043 371.492 179.934C375.983 179.686 382.202 179.619 389.059 179.924C395.911 180.243 402.095 180.88 406.538 181.568C408.762 181.894 410.548 182.238 411.778 182.503C413.004 182.772 413.678 182.943 413.67 182.992Z" fill="#E0E0E0"/>
<path d="M331.167 228.339C331.143 228.343 331.08 228.119 330.979 227.685C330.87 227.171 330.738 226.541 330.576 225.781C330.232 224.125 329.799 221.719 329.3 218.736C328.302 212.773 327.18 204.493 326.067 195.339C324.952 186.181 323.91 177.901 323.036 171.927C322.603 169.02 322.247 166.629 321.982 164.852C321.871 164.081 321.78 163.447 321.706 162.924C321.65 162.483 321.632 162.249 321.655 162.244C321.68 162.24 321.743 162.465 321.844 162.899C321.952 163.413 322.086 164.041 322.248 164.801C322.591 166.456 323.026 168.865 323.523 171.847C324.523 177.809 325.642 186.089 326.756 195.248C327.871 204.403 328.914 212.68 329.787 218.657C330.22 221.563 330.576 223.955 330.842 225.731C330.952 226.501 331.043 227.137 331.118 227.657C331.172 228.1 331.191 228.335 331.167 228.339Z" fill="#E0E0E0"/>
<path d="M398.864 222.966C398.865 222.99 398.628 223.028 398.178 223.076C397.648 223.124 396.997 223.184 396.208 223.256C394.392 223.402 391.938 223.602 388.954 223.842C382.832 224.34 374.382 225.124 365.046 226.002C355.708 226.882 347.242 227.589 341.108 227.96C338.04 228.145 335.556 228.272 333.837 228.322C333.045 228.342 332.392 228.357 331.86 228.37C331.406 228.374 331.169 228.362 331.168 228.338C331.168 228.314 331.402 228.278 331.852 228.228C332.382 228.181 333.033 228.122 333.824 228.05C335.641 227.902 338.092 227.705 341.074 227.462C347.198 226.966 355.649 226.182 364.988 225.302C374.324 224.422 382.786 223.716 388.922 223.346C391.992 223.16 394.474 223.034 396.193 222.982C396.986 222.964 397.64 222.946 398.172 222.934C398.624 222.932 398.862 222.941 398.864 222.966Z" fill="#E0E0E0"/>
<path d="M451.374 358.66C451.389 358.667 451.313 358.877 451.153 359.283C450.97 359.727 450.729 360.315 450.422 361.06C449.745 362.655 448.787 364.913 447.577 367.761C445.07 373.56 441.53 381.752 437.303 391.531L437.241 391.676L437.085 391.701C427.607 393.267 416.553 395.093 404.791 397.036C401.107 397.639 397.491 398.231 393.966 398.805L393.474 398.887L393.597 398.404C396.229 388.019 398.651 378.455 400.71 370.332L400.862 370.641C392.978 367.119 386.471 364.211 381.886 362.16C379.659 361.145 377.901 360.345 376.65 359.776C376.083 359.508 375.631 359.296 375.287 359.132C374.979 358.981 374.825 358.9 374.831 358.887C374.837 358.873 375.002 358.932 375.319 359.057C375.674 359.201 376.134 359.391 376.715 359.629C377.978 360.167 379.757 360.923 382.01 361.88C386.618 363.879 393.155 366.715 401.078 370.151L401.287 370.241L401.231 370.463C399.206 378.593 396.821 388.167 394.231 398.564L393.861 398.161C397.385 397.581 401.001 396.988 404.685 396.383C416.45 394.468 427.51 392.671 436.99 391.129L436.771 391.299C441.089 381.559 444.705 373.4 447.263 367.625C448.535 364.804 449.545 362.568 450.257 360.988C450.597 360.257 450.866 359.68 451.069 359.245C451.255 358.853 451.359 358.653 451.374 358.66Z" fill="#E0E0E0"/>
<path d="M397.752 394.993L396.869 397.317L398.282 399.361L395.8 399.241L394.292 401.217L393.641 398.818L391.294 397.995L393.376 396.633L393.433 394.149L395.37 395.706L397.752 394.993Z" fill="#E0E0E0"/>
<path d="M375.579 357.322L375.139 358.478L375.843 359.495L374.607 359.435L373.857 360.418L373.533 359.225L372.367 358.815L373.401 358.138L373.431 356.903L374.393 357.678L375.579 357.322Z" fill="#E0E0E0"/>
<path d="M438.205 390.078L437.766 391.233L438.469 392.25L437.234 392.19L436.485 393.173L436.161 391.981L434.994 391.57L436.029 390.893L436.058 389.658L437.021 390.433L438.205 390.078Z" fill="#E0E0E0"/>
<path d="M402.066 369.281L401.627 370.437L402.33 371.454L401.095 371.393L400.346 372.377L400.022 371.184L398.855 370.774L399.888 370.097L399.918 368.861L400.882 369.636L402.066 369.281Z" fill="#E0E0E0"/>
<path d="M452.877 357.504L452.438 358.66L453.141 359.677L451.906 359.617L451.157 360.6L450.833 359.406L449.666 358.997L450.701 358.32L450.73 357.084L451.693 357.858L452.877 357.504Z" fill="#E0E0E0"/>
<path d="M48.7498 454.532H118.55C118.55 454.532 112.378 443.299 94.4112 444.935C77.2512 446.496 76.3792 439.408 67.6538 438.536C58.9285 437.664 51.6578 444.352 48.7498 454.532Z" fill="#E0E0E0"/>
<path d="M62.6085 179.714H132.41C132.41 179.714 126.237 168.482 108.27 170.117C91.1099 171.678 90.2379 164.59 81.5125 163.718C72.7885 162.846 65.5165 169.535 62.6085 179.714Z" fill="#F5F5F5"/>
<path d="M417.115 228.255H474.464C474.464 228.255 469.392 219.026 454.631 220.368C440.532 221.652 439.815 215.83 432.647 215.112C425.478 214.395 419.504 219.891 417.115 228.255Z" fill="#F5F5F5"/>
<path d="M450.274 117.686H450.273C431.245 86.7203 399.523 65.363 363.502 60.5256C349.506 58.647 335.218 59.0563 321.383 61.9816C280.113 70.7043 244.202 101.523 229.317 140.991C220.563 164.204 218.118 190.931 201.505 209.355C179.886 233.334 143.181 234.087 110.909 233.094C78.6365 232.1 41.9072 232.947 20.3925 257.02C6.91787 272.098 2.63521 293.538 3.72188 313.73C6.59921 367.186 44.3219 414.984 92.2952 438.742C140.269 462.5 196.751 464.63 249.255 454.178C322.806 439.536 392.754 399.33 434.798 337.228C474.855 278.06 486.407 198.463 458.314 133.106C456.023 127.774 453.311 122.63 450.274 117.686Z" fill="#EBEBEB"/>
<path d="M302.599 341.45C305.447 319.959 290.339 302.23 271.459 291.575C252.578 280.922 230.678 277.355 209.825 271.43C190.158 265.842 170.599 257.69 156.031 243.342C141.465 228.997 132.726 207.43 137.962 187.666C139.278 182.703 141.627 177.719 145.889 174.858C150.15 171.995 156.655 172.067 159.834 176.098C166.603 184.683 153.413 200.059 161.673 207.221C163.569 208.865 166.177 209.47 168.138 211.034C173.362 215.199 171.671 223.297 172.407 229.937C173.866 243.067 186.179 252.186 198.273 257.506C214.47 264.634 232.018 267.983 249.202 272.207C266.386 276.431 283.713 281.753 298.029 292.153C312.346 302.554 324.765 318.837 324.666 336.533C324.638 341.478 324.01 347.558 320.905 351.407C317.802 355.257 313.85 356.057 309.375 353.951C304.902 351.846 301.77 348.589 302.599 341.45Z" fill="#202F67"/>
<g opacity="0.800003">
<g opacity="0.800003">
<path opacity="0.800003" d="M302.599 341.45C305.447 319.959 290.339 302.23 271.459 291.575C252.578 280.922 230.678 277.355 209.825 271.43C190.158 265.842 170.599 257.69 156.031 243.342C141.465 228.997 132.726 207.43 137.962 187.666C139.278 182.703 141.627 177.719 145.889 174.858C150.15 171.995 156.655 172.067 159.834 176.098C166.603 184.683 153.413 200.059 161.673 207.221C163.569 208.865 166.177 209.47 168.138 211.034C173.362 215.199 171.671 223.297 172.407 229.937C173.866 243.067 186.179 252.186 198.273 257.506C214.47 264.634 232.018 267.983 249.202 272.207C266.386 276.431 283.713 281.753 298.029 292.153C312.346 302.554 324.765 318.837 324.666 336.533C324.638 341.478 324.01 347.558 320.905 351.407C317.802 355.257 313.85 356.057 309.375 353.951C304.902 351.846 301.77 348.589 302.599 341.45Z" fill="white"/>
</g>
</g>
<path d="M211.262 170.62C210.581 162.66 216.513 155.729 223.257 152.012C230.001 148.296 237.725 146.787 244.678 143.491C261.941 135.307 272.917 116.047 273.729 96.2908C274.538 76.5361 265.975 56.7908 252.577 42.2815C247.133 36.3855 240.435 30.2081 240.355 22.1641C240.271 13.7695 248.413 7.1548 256.545 7.26146C264.677 7.36813 272.17 12.8121 277.038 19.6588C281.905 26.5068 284.599 34.6668 287.221 42.6788C285.351 39.3295 289.187 35.1801 292.883 35.5375C296.579 35.8961 299.497 38.9775 301.778 42.0481C311.574 55.2375 316.422 72.1815 315.07 88.5055C313.721 104.829 306.182 120.364 294.405 131.099C281.251 143.089 263.845 148.715 246.973 154.037C235.234 157.743 223.493 161.447 211.753 165.151" fill="#202F67"/>
<g opacity="0.800003">
<g opacity="0.800003">
<path opacity="0.800003" d="M211.262 170.62C210.581 162.66 216.513 155.729 223.257 152.012C230.001 148.296 237.725 146.787 244.678 143.491C261.941 135.307 272.917 116.047 273.729 96.2908C274.538 76.5361 265.975 56.7908 252.577 42.2815C247.133 36.3855 240.435 30.2081 240.355 22.1641C240.271 13.7695 248.413 7.1548 256.545 7.26146C264.677 7.36813 272.17 12.8121 277.038 19.6588C281.905 26.5068 284.599 34.6668 287.221 42.6788C285.351 39.3295 289.187 35.1801 292.883 35.5375C296.579 35.8961 299.497 38.9775 301.778 42.0481C311.574 55.2375 316.422 72.1815 315.07 88.5055C313.721 104.829 306.182 120.364 294.405 131.099C281.251 143.089 263.845 148.715 246.973 154.037C235.234 157.743 223.493 161.447 211.753 165.151" fill="white"/>
</g>
</g>
<path d="M201.465 3.35441C197.965 4.82641 196.046 9.25974 197.365 12.8184C198.685 16.3784 203.029 18.4891 206.642 17.3251C210.257 16.1611 212.553 11.9117 211.546 8.25041C210.539 4.59041 206.394 2.11174 202.693 2.95974" fill="#202F67"/>
<g opacity="0.800003">
<g opacity="0.800003">
<path opacity="0.800003" d="M201.465 3.35441C197.965 4.82641 196.046 9.25974 197.365 12.8184C198.685 16.3784 203.029 18.4891 206.642 17.3251C210.257 16.1611 212.553 11.9117 211.546 8.25041C210.539 4.59041 206.394 2.11174 202.693 2.95974" fill="white"/>
</g>
</g>
<path d="M244.894 517.112C240.576 508.161 244.339 497.004 251.218 489.831C258.095 482.657 267.49 478.564 276.586 474.559C296.656 465.716 317.908 455.18 328.115 435.765C331.558 429.219 333.519 422.015 335.455 414.875C339.202 401.056 342.714 385.364 335.18 373.189C333.014 369.688 329.754 366.572 325.699 365.853C321.083 365.032 316.335 367.576 313.49 371.303C310.644 375.028 309.423 379.749 308.835 384.4C307.715 393.251 308.644 402.251 307.712 411.121C306.782 419.992 303.536 429.268 296.219 434.369C287.334 440.565 274.652 439.175 266.023 445.72C259.054 451.005 256.403 460.172 250.952 467.012C246.371 472.76 239.962 476.691 234.088 481.112C228.216 485.533 222.538 490.929 220.543 498.004C218.471 505.353 221.062 513.805 226.898 518.729C232.735 523.653 241.502 524.787 248.398 521.507" fill="#202F67"/>
<g opacity="0.800003">
<g opacity="0.800003">
<path opacity="0.800003" d="M244.894 517.112C240.576 508.161 244.339 497.004 251.218 489.831C258.095 482.657 267.49 478.564 276.586 474.559C296.656 465.716 317.908 455.18 328.115 435.765C331.558 429.219 333.519 422.015 335.455 414.875C339.202 401.056 342.714 385.364 335.18 373.189C333.014 369.688 329.754 366.572 325.699 365.853C321.083 365.032 316.335 367.576 313.49 371.303C310.644 375.028 309.423 379.749 308.835 384.4C307.715 393.251 308.644 402.251 307.712 411.121C306.782 419.992 303.536 429.268 296.219 434.369C287.334 440.565 274.652 439.175 266.023 445.72C259.054 451.005 256.403 460.172 250.952 467.012C246.371 472.76 239.962 476.691 234.088 481.112C228.216 485.533 222.538 490.929 220.543 498.004C218.471 505.353 221.062 513.805 226.898 518.729C232.735 523.653 241.502 524.787 248.398 521.507" fill="white"/>
</g>
</g>
<path d="M111.391 65.1318C104.322 59.8878 100.007 51.1225 100.166 42.3225C100.322 33.5212 104.946 24.9145 112.198 19.9265C116.298 17.1065 121.159 15.3812 124.804 11.9932C128.046 8.9825 130.154 4.8025 133.78 2.2705C138.287 -0.877499 144.826 -0.738834 149.194 2.59717C153.562 5.93183 155.419 12.2025 153.57 17.3798C151.899 22.0585 147.698 25.4772 145.943 30.1265C144.054 35.1305 145.271 40.7358 144.568 46.0385C143.707 52.5545 139.75 58.5918 134.118 61.9812C128.486 65.3705 121.298 66.0412 115.136 63.7518" fill="#202F67"/>
<g opacity="0.800003">
<g opacity="0.800003">
<path opacity="0.800003" d="M111.391 65.1318C104.322 59.8878 100.007 51.1225 100.166 42.3225C100.322 33.5212 104.946 24.9145 112.198 19.9265C116.298 17.1065 121.159 15.3812 124.804 11.9932C128.046 8.9825 130.154 4.8025 133.78 2.2705C138.287 -0.877499 144.826 -0.738834 149.194 2.59717C153.562 5.93183 155.419 12.2025 153.57 17.3798C151.899 22.0585 147.698 25.4772 145.943 30.1265C144.054 35.1305 145.271 40.7358 144.568 46.0385C143.707 52.5545 139.75 58.5918 134.118 61.9812C128.486 65.3705 121.298 66.0412 115.136 63.7518" fill="white"/>
</g>
</g>
<path d="M121.073 77.5439H119.122C115.135 77.5439 111.903 74.3133 111.903 70.3266V36.5453H128.29V70.3266C128.29 74.3133 125.059 77.5439 121.073 77.5439Z" fill="#202F67"/>
<path d="M111.903 36.5459L120.097 21.5179L128.29 36.5459H111.903Z" fill="#FFBE9D"/>
<path d="M116.851 27.471C116.851 27.471 119.339 31.2123 123.342 27.471L120.097 21.519L116.851 27.471Z" fill="#202F67"/>
<path d="M128.517 68.6807C128.517 68.8634 124.787 69.0127 120.187 69.0127C115.586 69.0127 111.858 68.8634 111.858 68.6807C111.858 68.498 115.586 68.3487 120.187 68.3487C124.787 68.3487 128.517 68.498 128.517 68.6807Z" fill="#263238"/>
<path d="M128.349 66.169C128.349 66.353 124.695 66.501 120.188 66.501C115.679 66.501 112.025 66.353 112.025 66.169C112.025 65.9863 115.679 65.8383 120.188 65.8383C124.695 65.8383 128.349 65.9863 128.349 66.169Z" fill="#263238"/>
<path d="M116.713 36.786C116.896 36.786 117.044 43.326 117.044 51.394C117.044 59.462 116.896 66.002 116.713 66.002C116.531 66.002 116.381 59.462 116.381 51.394C116.381 43.326 116.531 36.786 116.713 36.786Z" fill="#FAFAFA"/>
<path d="M123.342 36.786C123.525 36.786 123.674 43.326 123.674 51.394C123.674 59.462 123.525 66.002 123.342 66.002C123.16 66.002 123.012 59.462 123.012 51.394C123.012 43.326 123.16 36.786 123.342 36.786Z" fill="#FAFAFA"/>
<path d="M254.27 498.281L328.717 501.467L330.514 505.804L281.722 585L193.639 582.432L254.27 498.281Z" fill="#263238"/>
<path d="M190.297 574.712L278.911 579.772L325.193 507.948L292.695 510.588L210.437 539.556L190.297 574.712Z" fill="#E0E0E0"/>
<path d="M177.853 569.386L259.225 570.67C255.845 560.261 263.815 545.598 274.754 540.667C282.006 537.398 295.65 533.163 302.689 529.553C316.066 522.69 328.154 509.694 327.097 498.543L293.678 497.479L251.021 495.831C247.455 506.413 239.826 513.345 228.227 517.514C217.849 521.246 206.034 521.237 195.91 525.475C179.615 532.302 171.785 554.414 177.853 569.386Z" fill="#EBEBEB"/>
<path d="M177.853 569.386C177.853 569.386 177.775 569.213 177.649 568.861C177.517 568.491 177.331 567.97 177.09 567.291C176.806 566.61 176.641 565.71 176.398 564.657C176.105 563.61 176.007 562.358 175.837 560.953C175.63 558.135 175.659 554.618 176.482 550.607C177.31 546.614 178.883 542.114 181.701 537.693C182.431 536.607 183.133 535.459 184.043 534.421C184.483 533.893 184.898 533.33 185.375 532.813C185.87 532.31 186.371 531.803 186.878 531.29C187.366 530.755 187.927 530.29 188.505 529.829C189.081 529.369 189.639 528.87 190.247 528.427C191.525 527.626 192.761 526.69 194.21 526.065C199.849 523.221 206.585 522.022 213.598 520.751C217.115 520.113 220.737 519.442 224.373 518.442C227.993 517.415 231.638 516.043 235.099 514.126C236.839 513.186 238.518 512.087 240.107 510.842C241.706 509.61 243.206 508.21 244.55 506.646C247.285 503.554 249.345 499.795 250.733 495.734L250.806 495.518L251.034 495.525C262.362 495.958 274.251 496.411 286.574 496.881C298.898 497.365 311.661 497.699 324.725 498.137C325.526 498.163 326.327 498.189 327.107 498.213L327.402 498.223L327.426 498.514C327.651 501.09 327.182 503.654 326.351 506.034C325.971 507.246 325.393 508.365 324.859 509.502C324.233 510.585 323.645 511.691 322.914 512.701C320.139 516.845 316.585 520.311 312.834 523.358C309.05 526.382 304.945 528.894 300.669 530.874C296.375 532.803 292.029 534.378 287.773 535.953C283.518 537.526 279.309 539.019 275.313 540.757C273.353 541.671 271.47 542.711 269.839 544.081C268.973 544.697 268.251 545.478 267.463 546.17C266.766 546.957 265.991 547.669 265.373 548.507C262.745 551.731 260.77 555.385 259.683 559.202C258.53 562.993 258.402 567.005 259.481 570.586L259.59 570.947L259.219 570.941C234.573 570.503 214.238 570.142 200.041 569.891C192.966 569.747 187.426 569.635 183.63 569.558C181.757 569.511 180.318 569.475 179.325 569.451C178.353 569.422 177.853 569.386 177.853 569.386C177.853 569.386 178.354 569.366 179.326 569.367C180.319 569.374 181.758 569.385 183.633 569.397C187.429 569.439 192.97 569.502 200.046 569.581C214.243 569.778 234.579 570.059 259.229 570.401L258.966 570.754C257.837 567.042 257.97 562.917 259.137 559.045C260.241 555.143 262.243 551.423 264.914 548.134C265.545 547.279 266.331 546.55 267.041 545.747C267.846 545.039 268.581 544.243 269.465 543.609C271.126 542.21 273.067 541.131 275.066 540.198C279.094 538.438 283.301 536.942 287.555 535.361C291.807 533.783 296.147 532.206 300.402 530.29C304.622 528.331 308.686 525.841 312.426 522.849C316.134 519.834 319.645 516.403 322.369 512.333C323.087 511.341 323.659 510.257 324.275 509.195C324.793 508.086 325.359 506.991 325.727 505.817C326.533 503.505 326.981 501.035 326.767 498.577L327.086 498.875C326.306 498.851 325.506 498.825 324.703 498.799C311.638 498.361 298.875 498.023 286.551 497.529C274.229 497.046 262.339 496.581 251.01 496.135L251.311 495.929C249.895 500.055 247.789 503.887 244.995 507.034C243.623 508.626 242.093 510.05 240.463 511.299C238.846 512.563 237.137 513.674 235.373 514.623C231.861 516.561 228.178 517.935 224.518 518.965C220.847 519.963 217.21 520.627 213.689 521.255C206.671 522.505 199.973 523.683 194.409 526.465C192.981 527.074 191.761 527.991 190.498 528.775C189.897 529.209 189.345 529.698 188.774 530.15C188.202 530.602 187.646 531.059 187.163 531.585C186.659 532.09 186.163 532.589 185.671 533.082C185.197 533.591 184.786 534.146 184.347 534.666C183.442 535.689 182.742 536.822 182.014 537.893C179.202 542.254 177.614 546.709 176.763 550.666C175.919 554.641 175.859 558.135 176.034 560.937C176.189 562.335 176.27 563.581 176.545 564.627C176.771 565.678 176.919 566.578 177.187 567.261C177.407 567.946 177.575 568.47 177.695 568.843C177.807 569.199 177.853 569.386 177.853 569.386Z" fill="#263238"/>
<path d="M273.881 497.15C273.822 497.131 273.987 496.627 274.065 495.695C274.135 494.771 274.075 493.383 273.425 491.851C272.798 490.339 271.551 488.661 269.578 487.731C267.635 486.794 265.069 486.599 262.722 487.485C260.358 488.351 258.654 490.278 257.769 492.253C256.846 494.241 256.721 496.291 256.985 497.919C257.251 499.565 257.874 500.798 258.375 501.582C258.881 502.374 259.255 502.747 259.214 502.789C259.191 502.813 258.75 502.499 258.165 501.73C257.582 500.967 256.865 499.717 256.523 498.003C256.186 496.306 256.263 494.126 257.211 492.003C258.118 489.897 259.93 487.805 262.489 486.865C265.015 485.913 267.763 486.142 269.847 487.182C271.966 488.223 273.257 490.063 273.859 491.678C274.487 493.318 274.473 494.778 274.321 495.726C274.241 496.202 274.145 496.566 274.049 496.799C273.959 497.038 273.903 497.158 273.881 497.15Z" fill="#263238"/>
<path d="M286.635 497.15C286.575 497.131 286.74 496.627 286.817 495.695C286.888 494.771 286.828 493.383 286.179 491.851C285.552 490.339 284.304 488.661 282.331 487.731C280.388 486.794 277.823 486.599 275.475 487.485C273.111 488.351 271.408 490.278 270.521 492.253C269.599 494.241 269.473 496.291 269.739 497.919C270.004 499.565 270.627 500.798 271.129 501.582C271.633 502.374 272.009 502.747 271.968 502.789C271.945 502.813 271.504 502.499 270.917 501.73C270.335 500.967 269.617 499.717 269.277 498.003C268.939 496.306 269.017 494.126 269.964 492.003C270.871 489.897 272.683 487.805 275.241 486.865C277.768 485.913 280.517 486.142 282.6 487.182C284.72 488.223 286.011 490.063 286.613 491.678C287.24 493.318 287.227 494.778 287.073 495.726C286.995 496.202 286.897 496.566 286.801 496.799C286.713 497.038 286.656 497.158 286.635 497.15Z" fill="#263238"/>
<path d="M296.321 497.812C296.261 497.797 296.398 497.284 296.421 496.349C296.441 495.423 296.299 494.041 295.566 492.549C294.853 491.073 293.514 489.469 291.491 488.652C289.499 487.828 286.925 487.777 284.631 488.793C282.321 489.793 280.73 491.812 279.957 493.835C279.147 495.873 279.138 497.927 279.495 499.537C279.854 501.164 280.546 502.361 281.091 503.116C281.639 503.877 282.035 504.228 281.997 504.272C281.975 504.297 281.517 504.009 280.889 503.275C280.263 502.548 279.477 501.339 279.039 499.647C278.606 497.972 278.561 495.791 279.386 493.617C280.173 491.463 281.862 489.272 284.363 488.188C286.833 487.096 289.59 487.169 291.729 488.089C293.905 489.008 295.297 490.772 295.99 492.351C296.709 493.952 296.778 495.411 296.679 496.365C296.626 496.845 296.55 497.213 296.467 497.453C296.393 497.696 296.343 497.819 296.321 497.812Z" fill="#263238"/>
<path d="M306.705 498.403C306.644 498.392 306.753 497.874 306.729 496.936C306.698 496.011 306.485 494.639 305.673 493.187C304.884 491.752 303.46 490.22 301.398 489.511C299.365 488.794 296.792 488.879 294.556 490.018C292.301 491.138 290.818 493.238 290.153 495.298C289.454 497.375 289.554 499.428 289.996 501.018C290.44 502.622 291.193 503.78 291.778 504.506C292.365 505.236 292.781 505.567 292.742 505.612C292.725 505.639 292.25 505.375 291.584 504.675C290.921 503.982 290.072 502.816 289.546 501.151C289.024 499.5 288.862 497.324 289.572 495.111C290.242 492.918 291.816 490.642 294.256 489.427C296.664 488.204 299.421 488.131 301.605 488.936C303.826 489.74 305.31 491.428 306.086 492.967C306.889 494.53 307.034 495.982 306.986 496.939C306.958 497.422 306.902 497.794 306.834 498.039C306.772 498.283 306.728 498.408 306.705 498.403Z" fill="#263238"/>
<path d="M317.11 498.159C317.049 498.149 317.143 497.627 317.091 496.693C317.035 495.767 316.785 494.402 315.931 492.974C315.102 491.562 313.638 490.07 311.555 489.419C309.502 488.759 306.933 488.917 304.73 490.118C302.507 491.299 301.085 493.442 300.477 495.521C299.837 497.617 299.994 499.665 300.479 501.242C300.97 502.834 301.755 503.97 302.359 504.678C302.969 505.393 303.393 505.711 303.357 505.757C303.338 505.785 302.858 505.534 302.171 504.854C301.49 504.179 300.607 503.037 300.034 501.387C299.467 499.753 299.245 497.582 299.891 495.35C300.501 493.138 302.009 490.818 304.414 489.535C306.786 488.245 309.539 488.094 311.746 488.839C313.989 489.579 315.521 491.225 316.338 492.743C317.185 494.281 317.371 495.727 317.35 496.687C317.337 497.17 317.291 497.543 317.229 497.79C317.173 498.037 317.133 498.163 317.11 498.159Z" fill="#263238"/>
<path d="M325.878 499.327C325.817 499.315 325.933 498.798 325.918 497.862C325.899 496.934 325.702 495.561 324.906 494.099C324.134 492.655 322.73 491.107 320.677 490.373C318.651 489.633 316.077 489.689 313.827 490.799C311.561 491.893 310.053 493.974 309.363 496.026C308.638 498.097 308.715 500.149 309.137 501.743C309.565 503.355 310.303 504.522 310.879 505.253C311.459 505.991 311.869 506.327 311.831 506.371C311.813 506.398 311.343 506.13 310.683 505.421C310.029 504.719 309.193 503.543 308.686 501.871C308.183 500.217 308.05 498.039 308.786 495.834C309.481 493.649 311.081 491.39 313.535 490.205C315.957 489.01 318.715 488.969 320.889 489.801C323.101 490.631 324.566 492.335 325.322 493.885C326.107 495.455 326.237 496.909 326.177 497.866C326.143 498.349 326.082 498.719 326.011 498.963C325.945 499.209 325.901 499.333 325.878 499.327Z" fill="#263238"/>
<path d="M364.226 226.194C360.723 226.095 357.007 226.222 353.2 226.692C330.226 229.539 313.106 249.274 313.151 272.424C313.166 279.166 313.884 286.71 316.002 294.222C322.412 316.962 324.39 337.011 323.65 346.772L345.112 358.31C345.112 358.31 355.048 344.035 364.646 337.876C374.243 331.719 406.196 315.259 418.846 298.335C427 287.426 428.567 265.036 409.128 245.455C397.251 233.491 381.078 226.668 364.226 226.194Z" fill="#202F67"/>
<path d="M313.491 371.607L332.881 382.086L320.259 398.115L307.335 392.241L313.491 371.607Z" fill="#455A64"/>
<path d="M314.433 372.253C314.261 372.191 316.185 366.436 318.73 359.4C321.275 352.363 323.478 346.711 323.65 346.772C323.822 346.835 321.898 352.588 319.351 359.625C316.807 366.661 314.605 372.316 314.433 372.253Z" fill="white"/>
<path d="M331.658 381.298C331.501 381.206 334.538 375.77 338.442 369.158C342.349 362.544 345.639 357.26 345.797 357.352C345.955 357.446 342.918 362.88 339.013 369.494C335.109 376.106 331.815 381.391 331.658 381.298Z" fill="white"/>
<g opacity="0.399994">
<g opacity="0.399994">
<path opacity="0.399994" d="M370.691 226.803C369.821 226.852 359.152 239.339 354.433 247.791C338.555 276.227 337.843 303.9 333.436 336.168C332.805 340.777 330.513 350.717 330.557 350.485C332.907 352.328 340.803 355.993 340.803 355.993C340.803 355.993 348.248 347.005 351.208 342.485C363.056 324.385 375.919 310.275 386.061 291.167C396.205 272.059 405.967 255.113 396.58 235.623C396.58 235.623 380.323 226.264 370.691 226.803" fill="black"/>
</g>
</g>
<path d="M418.929 301.197C418.913 301.201 418.818 300.992 418.651 300.581C418.471 300.176 418.269 299.553 417.909 298.78C417.21 297.228 416.066 294.996 414.163 292.476C412.253 289.981 409.591 287.16 405.927 284.792C402.322 282.369 397.679 280.451 392.418 279.792L392.29 279.776L392.213 279.672C389.746 276.347 386.918 272.913 383.55 269.728C380.189 266.553 376.253 263.629 371.725 261.587C367.206 259.571 362.339 258.676 357.749 258.921C353.155 259.153 348.849 260.615 345.515 262.999L345.323 263.137L345.145 262.98C341.159 259.475 336.385 257.663 332.082 257.175C327.75 256.675 323.906 257.473 320.975 258.591C318.022 259.715 315.941 261.144 314.595 262.181C313.925 262.705 313.425 263.132 313.099 263.432C312.77 263.727 312.593 263.875 312.581 263.863C312.569 263.852 312.723 263.681 313.033 263.361C313.338 263.039 313.819 262.587 314.478 262.035C315.794 260.943 317.869 259.448 320.846 258.259C323.799 257.077 327.707 256.215 332.137 256.684C336.534 257.141 341.43 258.956 345.539 262.533L345.169 262.515C348.586 260.041 353.013 258.527 357.713 258.279C362.413 258.016 367.381 258.923 371.995 260.983C376.61 263.064 380.602 266.04 383.994 269.26C387.393 272.491 390.229 275.961 392.693 279.32L392.487 279.2C397.855 279.9 402.563 281.889 406.199 284.381C409.897 286.819 412.559 289.709 414.449 292.264C416.33 294.841 417.434 297.121 418.082 298.705C418.417 299.496 418.591 300.133 418.741 300.551C418.881 300.972 418.945 301.192 418.929 301.197Z" fill="white"/>
<path d="M379.032 329.53C378.901 329.576 378.926 327.59 377.181 324.866C376.3 323.544 374.984 322.041 373.06 320.91C371.182 319.746 368.669 318.965 365.957 319.228L365.689 319.253L365.648 318.988C365.218 316.229 364.076 313.297 362.126 310.697C360.188 308.112 357.473 305.802 354.165 304.516C351.448 303.434 348.556 303.054 345.838 303.24C343.116 303.434 340.578 304.208 338.424 305.334L338.22 305.441L338.062 305.273C335.917 302.974 333.148 301.684 330.609 301.236C328.06 300.721 325.736 300.98 323.926 301.446C320.257 302.445 318.694 304.217 318.621 304.078C318.612 304.066 318.708 303.968 318.906 303.789C319.112 303.62 319.392 303.333 319.816 303.036C320.65 302.432 321.977 301.648 323.832 301.102C325.673 300.573 328.06 300.258 330.698 300.749C333.326 301.173 336.226 302.472 338.504 304.87L338.142 304.809C340.36 303.622 342.981 302.808 345.792 302.597C348.598 302.393 351.592 302.778 354.409 303.9C357.845 305.237 360.65 307.637 362.638 310.318C364.638 313.013 365.794 316.052 366.209 318.904L365.898 318.664C368.768 318.416 371.38 319.278 373.304 320.516C375.274 321.724 376.597 323.304 377.461 324.689C378.32 326.096 378.7 327.346 378.882 328.201C378.976 328.628 378.99 328.966 379.02 329.189C379.044 329.413 379.048 329.529 379.032 329.53Z" fill="white"/>
<path d="M329.133 387.133C329.084 387.172 328.922 386.869 328.421 386.661C327.921 386.453 327.114 386.425 326.154 386.731C325.661 386.863 325.105 387.044 324.438 387.045C323.772 387.057 323.033 386.733 322.522 386.2C321.493 385.128 321.102 383.579 320.129 382.509C319.646 381.987 319.016 381.716 318.342 381.756C317.669 381.783 316.994 382.005 316.322 382.161C315.653 382.321 314.944 382.421 314.289 382.269C313.642 382.131 313.11 381.809 312.701 381.456C311.878 380.735 311.518 379.885 311.425 379.301C311.325 378.709 311.42 378.383 311.453 378.387C311.509 378.387 311.506 378.711 311.674 379.239C311.833 379.761 312.23 380.496 312.997 381.093C313.378 381.384 313.854 381.639 314.397 381.729C314.933 381.835 315.536 381.739 316.176 381.568C316.818 381.408 317.506 381.155 318.317 381.108C319.132 381.036 320.04 381.412 320.61 382.053C321.738 383.337 322.092 384.861 322.962 385.776C323.384 386.225 323.909 386.477 324.453 386.496C325 386.519 325.54 386.383 326.042 386.276C327.057 386.012 328.005 386.108 328.536 386.432C329.078 386.753 329.161 387.132 329.133 387.133Z" fill="white"/>
<path d="M331.356 384.023C331.27 384.184 327.034 382.092 321.897 379.352C316.758 376.609 312.662 374.259 312.749 374.097C312.834 373.936 317.069 376.027 322.209 378.768C327.345 381.508 331.441 383.861 331.356 384.023Z" fill="white"/>
<path d="M327.504 388.913C327.516 388.964 327.235 389.047 326.766 389.264C326.53 389.369 326.258 389.529 325.89 389.677C325.52 389.832 325.042 389.888 324.554 389.853C323.586 389.785 322.392 389.483 321.359 388.621C320.846 388.203 320.412 387.589 320.14 386.945C319.855 386.313 319.631 385.663 319.202 385.2C318.315 384.252 316.88 384.151 315.691 384.193C314.467 384.239 313.26 384.275 312.318 383.871C311.388 383.483 310.824 382.823 310.614 382.308C310.396 381.785 310.475 381.464 310.506 381.468C310.563 381.461 310.583 381.764 310.844 382.191C311.096 382.612 311.643 383.143 312.486 383.433C313.32 383.733 314.418 383.665 315.667 383.584C316.883 383.52 318.527 383.541 319.691 384.753C320.243 385.363 320.467 386.088 320.734 386.681C320.983 387.289 321.319 387.775 321.758 388.161C322.632 388.935 323.71 389.271 324.596 389.387C325.495 389.552 326.142 389.175 326.675 389.023C327.196 388.871 327.498 388.875 327.504 388.913Z" fill="white"/>
<path d="M181.116 264.385L214.644 259.413L198.614 236.703L190.016 237.211C184.231 237.553 179.132 241.127 176.839 246.45C175.62 249.277 175.282 252.405 175.866 255.427L181.116 264.385Z" fill="#202F67"/>
<g opacity="0.399994">
<g opacity="0.399994">
<path opacity="0.399994" d="M181.116 264.385L214.644 259.413L198.614 236.703L190.016 237.211C184.231 237.553 179.132 241.127 176.839 246.45C175.62 249.277 175.282 252.405 175.866 255.427L181.116 264.385Z" fill="black"/>
</g>
</g>
<path d="M325.14 301.538C325.485 302.498 325.862 303.636 326.244 304.996C326.572 306.162 326.686 307.377 326.606 308.586C326.505 310.053 326.294 311.996 325.849 313.022C325.297 314.293 326.578 315.574 327.666 314.94C328.752 314.302 330.357 310.837 330.258 306.374C330.16 301.912 334.712 307.26 336.405 309.178C338.1 311.098 343.618 316.79 344.621 316.737C346.092 316.66 346.278 315.07 344.542 313.193C342.784 311.292 337.996 305.318 339.053 304.472C340.093 303.64 348.582 313.528 348.582 313.528C348.582 313.528 350.056 315.936 351.309 315C353.57 313.31 343.773 303.462 342.816 302.548C342.152 301.912 343.268 300.953 343.945 301.673C344.641 302.414 352.182 311.733 354.501 310.036C356.28 308.733 346.516 301.861 346.026 299.058C345.536 296.256 352.901 305.022 354.55 303.709C355.164 303.22 355.554 302.769 350.597 298.345C348.192 296.197 339.046 289.797 339.046 289.797L311.526 211.004L290.276 223.174L325.14 301.538Z" fill="#FFBE9D"/>
<path d="M161.32 152.526L130.568 115.826L130.567 115.827C130.168 114.566 129.688 113.335 129.061 112.169C127.525 109.305 124.983 106.81 121.808 106.117C119.857 105.69 117.624 105.894 116.095 104.613C115.411 104.039 114.955 103.222 114.237 102.691C113.521 102.158 112.327 102.055 111.868 102.822C111.543 103.367 111.749 104.066 111.996 104.651C113.137 107.359 115.003 109.754 117.333 111.543C114.451 112.419 110.333 113.745 110.333 113.745C110.333 113.745 103.832 106.691 100.503 106.713C97.1721 106.735 103.193 113.011 103.193 113.011C103.193 113.011 97.8614 108.083 96.2081 109.473C94.5548 110.861 98.7921 114.519 98.7921 114.519C97.4454 113.799 95.9721 113.057 94.4654 113.307C92.9601 113.557 91.6641 115.334 92.4748 116.627C92.7854 117.123 93.3188 117.429 93.8294 117.713C96.5574 119.234 99.2854 120.754 102.015 122.275C103.384 123.038 104.821 123.822 106.389 123.87C110.541 123.998 113.7 121.427 117.851 121.538C117.851 121.538 141.041 170.353 143.385 172.87C145.732 175.387 196.676 178.815 196.676 178.815L226.161 153.411L161.32 152.526Z" fill="#FFBE9D"/>
<path d="M253.684 418.426L285.088 432.104L268.271 471.262C264.628 469.426 265.819 445.943 265.819 445.943L245.337 438.006L253.684 418.426Z" fill="#202F67"/>
<g opacity="0.600006">
<g opacity="0.600006">
<path opacity="0.600006" d="M269.322 433.106C269.854 432.437 270.931 432.279 271.622 432.785C272.311 433.289 272.482 434.382 271.961 435.061C271.441 435.739 270.153 435.967 269.523 435.389C268.895 434.81 268.766 433.515 269.434 432.981" fill="white"/>
</g>
</g>
<g opacity="0.600006">
<g opacity="0.600006">
<path opacity="0.600006" d="M285.088 432.104L281.869 430.85L266.949 468.862C266.949 468.862 266.958 470.931 268.272 471.262L285.088 432.104Z" fill="white"/>
</g>
</g>
<path d="M265.347 446.491C265.541 446.568 266.039 445.648 267.056 444.971C268.057 444.268 269.095 444.139 269.095 443.931C269.133 443.739 267.868 443.532 266.649 444.373C265.423 445.203 265.153 446.457 265.347 446.491Z" fill="#263238"/>
<path d="M265.282 451.328C265.448 451.452 266.13 450.763 267.216 450.461C268.295 450.128 269.24 450.339 269.312 450.144C269.42 449.977 268.359 449.364 267.012 449.765C265.664 450.155 265.1 451.245 265.282 451.328Z" fill="#263238"/>
<path d="M269.196 455.772C269.312 455.616 268.469 454.939 267.212 454.98C265.953 455.014 265.153 455.738 265.278 455.887C265.389 456.063 266.2 455.723 267.233 455.704C268.265 455.663 269.096 455.954 269.196 455.772Z" fill="#263238"/>
<path d="M260.881 444.166C261.089 444.159 261.202 443.17 261.741 442.12C262.255 441.06 262.979 440.375 262.858 440.204C262.767 440.034 261.707 440.551 261.091 441.796C260.466 443.035 260.689 444.194 260.881 444.166Z" fill="#263238"/>
<path d="M256.635 441.237C256.713 441.273 257.156 440.568 257.467 439.27C257.62 438.625 257.728 437.833 257.717 436.949C257.712 436.506 257.676 436.042 257.604 435.566C257.565 435.336 257.541 435.072 257.396 434.776C257.288 434.478 256.832 434.141 256.417 434.252C256.031 434.322 255.748 434.621 255.62 434.901C255.488 435.186 255.444 435.445 255.407 435.681C255.325 436.161 255.293 436.633 255.301 437.08C255.32 437.974 255.489 438.766 255.712 439.397C256.163 440.668 256.743 441.284 256.809 441.234C256.908 441.174 256.5 440.477 256.203 439.253C256.055 438.644 255.951 437.901 255.968 437.081C255.98 436.67 256.021 436.242 256.105 435.806C256.173 435.344 256.323 434.989 256.552 434.964C256.64 434.954 256.669 434.961 256.753 435.1C256.828 435.238 256.865 435.453 256.904 435.681C256.981 436.124 257.028 436.557 257.051 436.972C257.096 437.8 257.048 438.552 256.963 439.178C256.795 440.434 256.529 441.196 256.635 441.237Z" fill="#263238"/>
<path d="M257.016 441.106C257.075 441.051 256.552 440.376 255.344 439.775C254.744 439.478 253.972 439.223 253.081 439.12C252.637 439.072 252.164 439.063 251.676 439.108C251.191 439.172 250.552 439.23 250.149 439.934C249.968 440.315 250.132 440.767 250.344 440.988C250.553 441.232 250.769 441.355 250.977 441.499C251.403 441.767 251.856 441.951 252.297 442.067C253.184 442.302 254.024 442.258 254.683 442.099C256.027 441.77 256.597 441.071 256.54 441.026C256.471 440.92 255.816 441.43 254.589 441.596C253.985 441.679 253.24 441.663 252.48 441.424C252.1 441.307 251.717 441.136 251.363 440.903C250.972 440.662 250.704 440.362 250.813 440.224C250.893 440.028 251.349 439.832 251.749 439.814C252.187 439.764 252.615 439.758 253.021 439.786C253.833 439.844 254.557 440.027 255.141 440.244C256.315 440.686 256.941 441.196 257.016 441.106Z" fill="#263238"/>
<path d="M229.498 472.22L242.486 499.432L246.554 523.918C246.847 525.683 248.574 526.831 250.314 526.418C251.29 526.188 252.087 525.508 252.463 524.579C254.85 518.667 263.525 496.875 262.463 494.938C261.234 492.692 250.667 465.323 250.667 465.323L229.498 472.22Z" fill="#202F67"/>
<g opacity="0.600006">
<g opacity="0.600006">
<path opacity="0.600006" d="M250.314 526.418L261.629 493.081L262.153 494.246C262.605 495.254 262.69 496.389 262.384 497.449C261.56 500.286 259.114 508.07 252.546 524.542C252.165 525.501 251.324 526.207 250.314 526.418Z" fill="white"/>
</g>
</g>
<g opacity="0.600006">
<g opacity="0.600006">
<path opacity="0.600006" d="M251.997 486.747C251.522 487.532 251.765 488.675 252.53 489.183C253.298 489.69 254.462 489.451 254.951 488.674C255.439 487.896 255.19 486.515 254.371 486.098C253.554 485.679 252.201 486.034 251.914 486.904" fill="white"/>
</g>
</g>
<path d="M251.198 511.575C251.077 511.721 249.809 510.559 247.825 510.521C245.842 510.422 244.498 511.493 244.388 511.338C244.333 511.281 244.584 510.911 245.188 510.531C245.782 510.151 246.754 509.823 247.848 509.859C248.944 509.898 249.889 510.293 250.456 510.714C251.03 511.135 251.257 511.523 251.198 511.575Z" fill="#263238"/>
<path d="M250.895 516.14C250.818 516.317 249.534 515.82 247.927 516.053C246.316 516.248 245.207 517.064 245.087 516.913C244.943 516.809 246.004 515.631 247.84 515.396C249.672 515.141 251.004 516.001 250.895 516.14Z" fill="#263238"/>
<path d="M252.723 505.216C252.652 505.406 250.68 504.631 248.152 504.772C245.622 504.875 243.734 505.836 243.644 505.655C243.534 505.528 245.407 504.228 248.12 504.111C250.832 503.967 252.82 505.079 252.723 505.216Z" fill="#263238"/>
<path d="M249.465 496.615C249.467 496.813 247.661 496.862 245.653 497.678C243.632 498.469 242.289 499.675 242.155 499.531C242.017 499.43 243.237 497.918 245.408 497.063C247.568 496.19 249.495 496.449 249.465 496.615Z" fill="#263238"/>
<path d="M245.855 488.53C245.841 488.726 243.901 488.498 241.856 489.531C239.788 490.519 238.785 492.195 238.621 492.086C238.549 492.048 238.696 491.568 239.164 490.916C239.629 490.268 240.457 489.483 241.564 488.936C242.672 488.394 243.8 488.218 244.599 488.246C245.4 488.272 245.869 488.45 245.855 488.53Z" fill="#263238"/>
<path d="M241.214 487.973C241.181 487.989 240.951 487.647 240.709 486.949C240.47 486.255 240.223 485.189 240.311 483.853C240.378 483.209 240.393 482.413 240.998 481.705C241.297 481.35 241.898 481.166 242.387 481.383C242.87 481.593 243.175 481.998 243.381 482.43C244.137 484.187 243.398 486.551 241.546 487.683C239.673 488.786 237.381 488.463 235.922 487.307C235.575 486.994 235.242 486.567 235.246 486.007C235.246 485.445 235.721 485.006 236.145 484.897C237.018 484.653 237.743 484.89 238.381 485.025C239.671 485.361 240.618 485.898 241.218 486.318C241.822 486.741 242.093 487.049 242.067 487.078C242.003 487.193 240.765 486.039 238.274 485.481C237.659 485.37 236.934 485.207 236.322 485.417C236.022 485.517 235.827 485.742 235.83 486.019C235.823 486.287 236.037 486.609 236.323 486.847C237.537 487.783 239.633 488.074 241.203 487.117C242.773 486.178 243.419 484.101 242.825 482.679C242.677 482.339 242.433 482.039 242.162 481.919C241.895 481.802 241.599 481.87 241.393 482.086C240.954 482.543 240.854 483.281 240.778 483.894C240.526 486.435 241.349 487.945 241.214 487.973Z" fill="#263238"/>
<path d="M196.721 347.131L200.876 328.581C199.997 340.375 199.194 352.679 198.62 364.48C196.62 359.025 195.938 352.965 196.721 347.131ZM273.262 421.752L237.654 397.783L249.438 282.059L215.709 262.361L184.864 255.213C184.864 255.213 171.982 282.013 166.253 299.168C154.07 335.656 145.518 348.731 147.472 375.179C148.09 383.548 179.001 404.489 198.522 416.121C198.79 418.792 199.133 421.125 199.558 423.049C206.229 453.207 226.59 493.311 226.59 493.311L257.536 478.924L247.55 444.728L257.949 450.793L273.262 421.752Z" fill="#263238"/>
<path d="M226.59 493.31C226.58 493.314 226.498 493.149 226.35 492.822C226.194 492.465 225.981 491.981 225.709 491.362C225.149 490.04 224.345 488.144 223.317 485.718C221.261 480.808 218.318 473.689 214.777 464.854C211.256 456.012 207.061 445.48 202.838 433.616C201.785 430.649 200.753 427.59 199.785 424.434C199.356 422.836 198.817 421.26 198.534 419.566C198.454 419.149 198.36 418.73 198.29 418.31L198.142 417.049C198.049 416.205 197.954 415.356 197.86 414.505C197.497 411.097 197.197 407.62 196.973 404.086C196.861 402.321 196.765 400.54 196.696 398.745C196.632 396.958 196.55 395.132 196.654 393.317C197.177 378.776 198.4 364.992 199.405 352.446C200.453 339.912 201.397 328.621 202.19 319.128C202.958 309.642 203.496 301.961 203.8 296.649C203.966 293.994 204.058 291.93 204.12 290.532C204.157 289.856 204.185 289.329 204.206 288.94C204.229 288.581 204.248 288.397 204.258 288.397C204.27 288.397 204.276 288.582 204.274 288.942C204.269 289.332 204.262 289.86 204.254 290.536C204.234 291.937 204.184 294.004 204.058 296.662C203.832 301.982 203.366 309.672 202.658 319.165C201.904 328.662 201.008 339.956 200.013 352.496C199.042 365.037 197.838 378.836 197.316 393.33C197.213 395.141 197.294 396.925 197.357 398.72C197.425 400.508 197.52 402.284 197.63 404.046C197.85 407.569 198.146 411.037 198.504 414.437C198.597 415.286 198.69 416.132 198.784 416.974L198.929 418.233C198.997 418.646 199.089 419.049 199.168 419.456C199.433 421.085 199.97 422.672 200.39 424.253C201.348 427.394 202.37 430.449 203.413 433.414C207.598 445.272 211.748 455.82 215.213 464.681C218.726 473.498 221.573 480.645 223.556 485.62C224.534 488.066 225.3 489.978 225.833 491.31C226.078 491.941 226.272 492.433 226.413 492.796C226.541 493.132 226.601 493.305 226.59 493.31Z" fill="#455A64"/>
<path d="M202.789 284.487C202.761 284.521 202.477 284.292 201.977 283.829C201.513 283.341 200.951 282.52 200.472 281.409C199.513 279.181 199.027 275.855 198.955 272.228C198.888 268.591 199.157 265.315 199.396 262.956C199.641 260.596 199.841 259.145 199.931 259.152C200.024 259.157 199.988 260.627 199.863 262.991C199.744 265.355 199.551 268.619 199.616 272.213C199.688 275.8 200.095 279.053 200.908 281.237C201.313 282.327 201.789 283.143 202.175 283.663C202.593 284.153 202.817 284.452 202.789 284.487Z" fill="#455A64"/>
<path d="M189.473 256.945C189.54 256.93 189.861 258.158 189.737 260.182C189.626 262.189 188.944 265.011 187.185 267.593C185.425 270.174 183.048 271.843 181.221 272.681C179.382 273.535 178.122 273.685 178.112 273.618C178.08 273.509 179.281 273.197 181.009 272.262C182.73 271.343 184.957 269.686 186.638 267.221C188.317 264.754 189.045 262.075 189.272 260.139C189.509 258.189 189.36 256.955 189.473 256.945Z" fill="#455A64"/>
<path d="M244.805 324.226C244.817 324.227 244.815 324.347 244.799 324.579C244.776 324.848 244.747 325.187 244.712 325.607C244.616 326.56 244.484 327.88 244.315 329.558C243.936 333.038 243.396 337.984 242.733 344.078C241.34 356.372 239.427 373.278 237.313 391.95C236.496 401.298 237.312 410.295 239.065 418.222C239.933 422.194 241.081 425.883 242.289 429.296C243.488 432.714 244.604 435.9 245.624 438.814C247.631 444.604 249.261 449.307 250.408 452.614C250.945 454.211 251.371 455.47 251.676 456.376C251.805 456.779 251.908 457.103 251.991 457.362C252.057 457.584 252.088 457.699 252.076 457.703C252.065 457.707 252.015 457.599 251.927 457.383C251.829 457.132 251.705 456.815 251.551 456.42C251.217 455.524 250.753 454.279 250.165 452.699C248.971 449.411 247.273 444.732 245.183 438.972C244.139 436.066 242.997 432.887 241.773 429.478C240.539 426.066 239.359 422.348 238.471 418.355C236.671 410.379 235.829 401.312 236.653 391.894C238.736 373.17 240.804 356.28 242.268 344.03C243.019 337.947 243.629 333.007 244.057 329.532C244.279 327.862 244.453 326.544 244.579 325.594C244.641 325.176 244.691 324.84 244.731 324.572C244.769 324.342 244.793 324.224 244.805 324.226Z" fill="#455A64"/>
<path d="M184.864 254.991L190.327 241.035L202.79 259.619L186.172 255.464" fill="#FFBE9D"/>
<path d="M315.293 213.035L300.5 179.873C298.732 174.541 295.415 173.714 292.636 170.619L255.58 149.721C228.573 138.658 213.869 175.755 213.869 175.755L189.321 231.745C160.456 241.314 180.895 263.483 180.895 263.483C180.895 263.483 173.043 249.835 180.765 244.911C188.851 239.755 197.815 253.339 206.427 266.241C216.593 281.474 249.635 291.367 249.635 291.367C253.499 287.285 252.419 273.033 255.444 265.383C256.403 262.958 279.284 209.962 279.284 209.962L288.153 231.45C288.153 231.45 299.523 218.121 305.032 216.002C310.543 213.883 315.293 213.035 315.293 213.035Z" fill="#202F67"/>
<path d="M249.634 236.602C249.656 236.636 249.268 236.932 248.512 237.384C247.758 237.84 246.618 238.424 245.141 238.983C242.21 240.111 237.773 240.988 232.964 240.246C228.152 239.503 224.186 237.33 221.732 235.37C220.492 234.391 219.58 233.491 219 232.83C218.416 232.17 218.136 231.771 218.166 231.744C218.257 231.658 219.504 233.164 222.014 234.995C224.496 236.826 228.386 238.87 233.064 239.591C237.74 240.312 242.066 239.538 244.985 238.542C247.93 237.552 249.573 236.491 249.634 236.602Z" fill="#263238"/>
<path d="M188.224 184.016L211.093 186.174L247.677 147.506L226.161 146.767L187.845 150.547C187.845 150.547 191.238 166.518 188.224 184.016Z" fill="#202F67"/>
<path d="M219.987 163.642C220.007 163.653 219.909 163.896 219.707 164.352C219.467 164.868 219.163 165.521 218.789 166.325C217.951 168.116 216.8 170.572 215.396 173.57C212.552 179.698 208.779 188.234 204.688 197.7C200.599 207.168 196.877 215.736 194.065 221.884C192.661 224.96 191.503 227.437 190.669 229.136C190.275 229.929 189.955 230.574 189.701 231.085C189.472 231.528 189.343 231.754 189.321 231.745C189.301 231.736 189.391 231.489 189.58 231.029C189.804 230.504 190.087 229.842 190.436 229.028C191.227 227.214 192.312 224.729 193.637 221.693C196.341 215.413 200.017 206.874 204.081 197.437C208.172 187.969 212.017 179.453 214.972 173.37C216.444 170.328 217.671 167.881 218.559 166.21C218.977 165.428 219.319 164.793 219.588 164.29C219.829 163.856 219.967 163.632 219.987 163.642Z" fill="#263238"/>
<path d="M289.784 174.888C289.848 175 288.43 175.74 286.495 177.386C285.52 178.2 284.464 179.286 283.406 180.582C282.375 181.901 281.36 183.444 280.504 185.177C279.674 186.922 279.091 188.674 278.695 190.301C278.334 191.936 278.135 193.437 278.1 194.706C278.006 197.246 278.304 198.817 278.176 198.836C278.132 198.845 278.034 198.458 277.898 197.749C277.822 197.393 277.75 196.957 277.719 196.444C277.683 195.93 277.604 195.346 277.632 194.697C277.607 193.4 277.76 191.853 278.098 190.168C278.474 188.492 279.054 186.682 279.91 184.888C280.787 183.106 281.848 181.529 282.931 180.197C284.044 178.888 285.163 177.808 286.199 177.025C286.691 176.601 287.198 176.3 287.622 176.01C288.043 175.716 288.432 175.504 288.756 175.342C289.4 175.01 289.762 174.848 289.784 174.888Z" fill="#263238"/>
<path d="M296.174 121.779L274.719 161.881C271.216 168.428 263.247 171.153 256.47 168.12C249.007 164.78 245.92 155.825 249.742 148.599C251.764 144.773 253.443 141.649 253.443 141.649C253.443 141.649 244.115 135.605 248.478 125.527C252.368 116.533 266.658 91.1548 269.692 85.7868L287.774 93.8801C297.93 99.1548 301.728 111.773 296.174 121.779Z" fill="#FFBE9D"/>
<path d="M253.491 141.498C253.491 141.498 259.595 144.849 268.221 143.633C268.221 143.633 261.905 149.463 252.305 144.085L253.491 141.498Z" fill="#EB996E"/>
<path d="M260.382 109.435C260.017 110.179 260.346 111.102 261.115 111.496C261.885 111.891 262.803 111.61 263.169 110.866C263.534 110.123 263.205 109.199 262.437 108.804C261.667 108.408 260.746 108.691 260.382 109.435Z" fill="#263238"/>
<path d="M260.464 108.159C260.557 108.424 262 108.107 263.54 108.8C265.087 109.471 265.863 110.769 266.113 110.656C266.233 110.609 266.204 110.191 265.872 109.612C265.547 109.039 264.876 108.323 263.915 107.897C262.952 107.472 261.988 107.464 261.361 107.619C260.724 107.769 260.413 108.036 260.464 108.159Z" fill="#263238"/>
<path d="M274.793 116.524C274.428 117.268 274.757 118.19 275.527 118.585C276.295 118.98 277.215 118.7 277.58 117.956C277.944 117.212 277.616 116.288 276.848 115.893C276.079 115.497 275.157 115.78 274.793 116.524Z" fill="#263238"/>
<path d="M275.476 115.221C275.569 115.488 277.014 115.171 278.553 115.864C280.098 116.535 280.874 117.832 281.126 117.719C281.245 117.672 281.217 117.255 280.884 116.676C280.56 116.103 279.888 115.385 278.926 114.96C277.964 114.536 277 114.528 276.374 114.681C275.738 114.833 275.426 115.099 275.476 115.221Z" fill="#263238"/>
<path d="M264.774 124.143C264.819 124.059 263.936 123.464 262.472 122.572C262.098 122.355 261.76 122.111 261.815 121.812C261.85 121.487 262.203 121.136 262.599 120.764C263.395 119.978 264.228 119.154 265.103 118.29C268.627 114.748 271.364 111.766 271.222 111.624C271.078 111.483 268.104 114.24 264.58 117.782C263.722 118.659 262.902 119.495 262.119 120.296C261.77 120.676 261.287 121.068 261.223 121.748C261.196 122.09 261.391 122.432 261.612 122.614C261.831 122.803 262.05 122.906 262.239 123.004C263.763 123.787 264.728 124.227 264.774 124.143Z" fill="#263238"/>
<path d="M268.83 127.237C268.586 127.111 267.834 128.781 265.872 129.327C263.911 129.879 262.212 128.893 262.095 129.121C262.024 129.215 262.347 129.624 263.09 129.98C263.816 130.336 265 130.581 266.2 130.247C267.399 129.909 268.208 129.107 268.574 128.447C268.95 127.776 268.948 127.279 268.83 127.237Z" fill="#263238"/>
<path d="M277.779 109.007C277.744 109.493 279.37 109.983 281.08 111.009C282.81 112.003 284.031 113.183 284.439 112.915C284.627 112.783 284.548 112.275 284.14 111.607C283.738 110.94 282.978 110.139 281.947 109.532C280.916 108.928 279.846 108.656 279.067 108.629C278.284 108.599 277.803 108.779 277.779 109.007Z" fill="#263238"/>
<path d="M263.025 103.954C263.14 104.425 264.363 104.537 265.647 105.092C266.949 105.6 267.897 106.38 268.311 106.125C268.497 105.997 268.485 105.57 268.161 105.028C267.844 104.489 267.187 103.872 266.297 103.506C265.408 103.141 264.507 103.118 263.903 103.278C263.291 103.436 262.981 103.73 263.025 103.954Z" fill="#263238"/>
<path d="M289.427 127.79C289.631 127.791 297.226 128.835 293.941 135.59C290.655 142.345 284.551 137.653 284.634 137.453C284.717 137.254 289.427 127.79 289.427 127.79Z" fill="#FFBE9D"/>
<path d="M287.942 135.897C287.982 135.891 288.02 136.037 288.175 136.225C288.324 136.408 288.628 136.631 289.044 136.671C289.886 136.756 291.038 135.916 291.663 134.713C291.979 134.108 292.135 133.459 292.152 132.869C292.187 132.275 292.035 131.773 291.707 131.536C291.39 131.279 291.03 131.369 290.856 131.52C290.674 131.665 290.65 131.82 290.61 131.815C290.582 131.823 290.52 131.631 290.71 131.379C290.803 131.259 290.959 131.137 291.182 131.085C291.408 131.032 291.679 131.08 291.915 131.229C292.418 131.519 292.654 132.225 292.636 132.875C292.643 133.539 292.482 134.275 292.128 134.955C291.422 136.295 290.106 137.231 288.992 137.037C288.456 136.931 288.13 136.593 288.003 136.336C287.875 136.067 287.914 135.897 287.942 135.897Z" fill="#EB996E"/>
<path d="M293.344 129.263C292.412 128.543 290.172 128.699 289.289 129.477C288.405 130.256 287.812 131.321 286.928 132.101C286.045 132.883 284.647 133.319 283.709 132.603C283.064 132.108 282.851 131.201 282.981 130.4C283.112 129.597 283.528 128.875 283.951 128.18C285.787 125.16 287.879 122.288 289.449 119.123C291.021 115.957 292.06 112.403 291.596 108.9C291.133 105.396 288.928 101.987 285.596 100.807C283.391 100.025 280.94 100.261 278.692 99.6107C276.027 98.8401 273.769 96.7681 272.775 94.1774C272.649 93.8454 271.893 92.6601 271.893 92.6601C271.968 92.4947 272.765 91.1334 273.563 90.8641C279.497 88.8614 287.547 91.1627 292.467 95.0387C297.387 98.9161 300.832 105.156 300.892 111.42C300.953 117.683 297.011 124.593 293.344 129.263Z" fill="#263238"/>
<path d="M293.409 128.587C295.285 125.395 298.331 123.083 300.656 120.2C302.98 117.319 304.577 113.26 302.923 109.948C302.357 108.816 301.452 107.868 300.98 106.696C300.504 105.516 300.503 104.21 300.321 102.951C299.757 99.0602 297.299 95.4909 293.865 93.5776C291.492 92.2536 288.753 91.7109 286.347 90.4469C282.537 88.4442 279.751 84.7322 275.748 83.1496C274.42 82.6242 272.865 82.3682 271.596 83.0242C270.325 83.6776 269.644 85.5202 270.569 86.6082C270.405 85.3309 268.749 84.6296 267.576 85.1602C266.401 85.6922 265.801 87.0882 265.881 88.3736C265.96 89.6589 266.597 90.8442 267.335 91.9002C269.765 95.3816 273.483 97.9416 277.601 98.9709L286.805 98.2536L294.351 103.846L299.936 112.734L289.808 125.891L293.409 128.587Z" fill="#263238"/>
<path d="M235.826 76.1206C234.669 58.206 219.207 44.622 201.293 45.7793C183.378 46.9366 169.794 62.398 170.951 80.3126C171.79 93.2833 180.127 103.978 191.463 108.457C191.713 112.301 191.993 116.641 191.993 116.641L220.422 114.803C220.422 114.803 220.298 110.199 220.095 106.095C230.193 100.034 236.637 88.6833 235.826 76.1206Z" fill="#202F67"/>
<path d="M210.133 115.332C210.133 115.332 210.129 115.195 210.139 114.93C210.153 114.648 210.171 114.256 210.195 113.751C210.255 112.716 210.339 111.188 210.501 109.224C210.663 107.26 210.891 104.858 211.335 102.09C211.791 99.3298 212.453 96.1858 213.695 92.8738C214.318 91.2191 215.051 89.5178 216.049 87.8471C216.565 87.0271 217.222 86.2205 218.138 85.7125C219.051 85.1991 220.233 85.1231 221.225 85.6125C221.715 85.8565 222.146 86.2912 222.334 86.8312C222.541 87.3605 222.526 87.9791 222.306 88.5045C221.871 89.5631 220.962 90.3392 219.941 90.8258C217.847 91.7138 215.366 91.6845 213.166 90.7831C210.959 89.8858 209.121 87.9978 208.237 85.6671C207.81 84.5085 207.535 83.2258 207.802 81.9378C208.027 80.6605 209.178 79.4551 210.605 79.4938C211.31 79.4991 211.979 79.9392 212.329 80.5298C212.694 81.1192 212.823 81.8338 212.719 82.5138C212.494 83.8871 211.583 84.9631 210.647 85.8845C208.713 87.7058 205.989 88.8245 203.227 88.5672C200.486 88.3085 197.934 86.6711 196.654 84.2965C195.987 83.1311 195.753 81.6792 196.181 80.3818C196.397 79.7405 196.854 79.1271 197.51 78.8551C198.155 78.5565 198.91 78.6298 199.519 78.9098C200.135 79.1858 200.653 79.6711 200.981 80.2445C201.319 80.8138 201.499 81.4498 201.595 82.0805C201.77 83.3458 201.67 84.6205 201.342 85.8191C200.703 88.2218 199.153 90.3151 197.122 91.5551C195.101 92.8071 192.689 93.2591 190.469 92.9125C189.373 92.7431 188.239 92.3818 187.449 91.5525C186.675 90.7405 186.386 89.3965 187.067 88.4391C187.407 87.9765 187.945 87.7072 188.479 87.6325C189.017 87.5592 189.558 87.6338 190.046 87.8325C191.039 88.2458 191.686 89.1018 192.175 89.9298C193.105 91.6365 193.869 93.3045 194.637 94.8938C197.654 101.263 199.842 106.531 201.315 110.184C202.051 112.011 202.602 113.439 202.97 114.408C203.146 114.883 203.283 115.25 203.381 115.514C203.471 115.764 203.507 115.896 203.507 115.896C203.507 115.896 203.446 115.774 203.343 115.528C203.237 115.268 203.087 114.906 202.895 114.438C202.494 113.463 201.915 112.052 201.171 110.243C199.655 106.61 197.427 101.362 194.382 95.0152C193.611 93.4391 192.826 91.7525 191.91 90.0871C191.435 89.2831 190.807 88.4885 189.926 88.1298C189.071 87.7751 187.909 87.8538 187.334 88.6338C186.771 89.4098 187.009 90.6085 187.697 91.3165C188.402 92.0578 189.463 92.4058 190.523 92.5645C192.659 92.8938 194.987 92.4511 196.929 91.2418C198.875 90.0485 200.362 88.0338 200.974 85.7205C201.289 84.5698 201.381 83.3378 201.214 82.1378C201.05 80.9591 200.474 79.7498 199.358 79.2658C198.823 79.0232 198.195 78.9685 197.667 79.2152C197.13 79.4378 196.747 79.9405 196.553 80.5098C196.174 81.6738 196.373 83.0112 197.003 84.1085C198.211 86.3552 200.658 87.9258 203.266 88.1685C205.891 88.4165 208.515 87.3458 210.374 85.5952C211.281 84.7112 212.137 83.6685 212.329 82.4551C212.421 81.8618 212.305 81.2392 211.995 80.7378C211.694 80.2365 211.165 79.8925 210.59 79.8845C210.018 79.8645 209.439 80.1165 209.011 80.5085C208.577 80.8978 208.306 81.4431 208.181 82.0218C207.933 83.1871 208.183 84.4231 208.593 85.5311C209.437 87.7658 211.198 89.5818 213.307 90.4432C215.406 91.3152 217.819 91.3392 219.793 90.5072C220.749 90.0592 221.605 89.3151 221.989 88.3805C222.399 87.4498 221.962 86.3205 221.074 85.9085C220.205 85.4711 219.114 85.5298 218.293 85.9925C217.446 86.4565 216.814 87.2165 216.31 88.0125C215.329 89.6392 214.582 91.3378 213.959 92.9725C212.709 96.2538 212.03 99.3791 211.555 102.127C211.093 104.882 210.842 107.279 210.655 109.238C210.493 111.187 210.365 112.707 210.275 113.756C210.235 114.262 210.202 114.652 210.179 114.932C210.155 115.198 210.133 115.332 210.133 115.332Z" fill="#AFAFAF"/>
<path d="M218.574 120.209L194.165 121.786C193.153 121.851 192.279 121.085 192.214 120.073C192.149 119.061 192.915 118.187 193.927 118.122L218.338 116.545C219.35 116.479 220.222 117.246 220.287 118.258C220.353 119.27 219.586 120.143 218.574 120.209Z" fill="#263238"/>
<path d="M218.678 121.808L194.268 123.385C193.256 123.451 192.488 124.324 192.555 125.336C192.62 126.348 193.492 127.115 194.504 127.049L197.184 126.876L201.176 133.412C201.632 134.16 202.466 134.592 203.34 134.536L212.063 133.973C212.946 133.916 213.723 133.369 214.074 132.557L217.094 125.589L218.915 125.472C219.927 125.407 220.694 124.533 220.628 123.521C220.563 122.509 219.69 121.743 218.678 121.808Z" fill="#263238"/>
<g opacity="0.199997">
<g opacity="0.199997">
<path opacity="0.199997" d="M181.214 58.8951C183.266 56.7404 185.459 55.179 187.431 54.1577C189.403 53.131 191.118 52.5844 192.337 52.3817C193.555 52.1751 194.262 52.2484 194.338 52.5031C194.517 53.0831 192.114 54.115 188.945 56.5417C185.785 58.9204 181.893 62.9777 179.745 68.4924C177.61 74.0151 177.749 79.6351 178.478 83.5231C179.182 87.4524 180.261 89.8337 179.737 90.1417C179.51 90.2791 178.938 89.8564 178.178 88.8817C177.414 87.9097 176.517 86.3511 175.753 84.2617C174.986 82.1791 174.418 79.5457 174.357 76.5711C174.29 73.6031 174.781 70.2937 176.021 67.047" fill="white"/>
</g>
</g>
<g opacity="0.199997">
<g opacity="0.199997">
<path opacity="0.199997" d="M202.23 53.3978C200.172 53.5112 198.322 53.0672 198.04 51.9912C197.915 51.4578 198.258 50.8578 198.972 50.3605C199.68 49.8645 200.763 49.4845 201.992 49.4112C203.222 49.3392 204.34 49.5872 205.103 49.9965C205.871 50.4045 206.283 50.9605 206.222 51.5058" fill="white"/>
</g>
</g>
<path d="M213.657 133.164C213.632 133.227 213 132.986 211.947 132.756C210.896 132.524 209.407 132.354 207.772 132.503C206.139 132.659 204.707 133.104 203.717 133.528C202.725 133.95 202.149 134.303 202.112 134.247C202.088 134.212 202.613 133.77 203.6 133.271C204.58 132.772 206.048 132.266 207.735 132.106C209.421 131.95 210.957 132.174 212.015 132.483C213.076 132.79 213.675 133.126 213.657 133.164Z" fill="#455A64"/>
<path d="M217.15 125.669C217.157 125.78 212.75 126.153 207.308 126.505C201.864 126.857 197.446 127.053 197.438 126.943C197.432 126.833 201.838 126.459 207.282 126.107C212.725 125.755 217.144 125.559 217.15 125.669Z" fill="#455A64"/>
<path d="M215.81 128.664C215.816 128.717 214.904 128.873 213.422 129.064C211.94 129.253 209.887 129.471 207.615 129.651C205.34 129.831 203.279 129.936 201.786 129.98C200.292 130.025 199.367 130.013 199.366 129.96C199.363 129.904 200.282 129.816 201.77 129.699C203.378 129.576 205.375 129.423 207.583 129.252C209.79 129.075 211.786 128.913 213.394 128.783C214.88 128.665 215.804 128.608 215.81 128.664Z" fill="#455A64"/>
<path d="M40.0226 291.96L45.3226 300.45C45.3226 300.45 67.9373 279.641 90.372 285.522C90.372 285.522 70.2106 268.426 40.0226 291.96Z" fill="#202F67"/>
<path d="M90.3716 285.522C90.3716 285.522 106.972 267.497 131.313 271.608L137.95 272.609L135.83 268.774C135.83 268.774 93.4969 254.274 90.3716 285.522Z" fill="#202F67"/>
<path d="M55.3338 224.742C55.3338 224.742 22.0832 219.021 0.273834 230.821L34.9032 296.02C34.9032 296.02 63.2485 268.697 90.3712 285.522L55.3338 224.742Z" fill="#F5F5F5"/>
<path d="M55.3338 224.743C55.3378 224.736 55.3978 224.825 55.5112 225.008C55.6352 225.212 55.7992 225.483 56.0098 225.829C56.4565 226.587 57.0978 227.669 57.9245 229.069C59.6058 231.947 62.0432 236.121 65.1325 241.411C71.3272 252.095 80.1312 267.276 90.6258 285.376C90.7072 285.517 90.6592 285.696 90.5192 285.777C90.4232 285.832 90.3058 285.827 90.2178 285.772C86.4552 283.464 82.1352 281.711 77.4698 280.879C75.1325 280.495 72.7245 280.332 70.2832 280.38C67.8418 280.48 65.3778 280.788 62.9205 281.307C53.0992 283.485 43.5578 288.819 35.4165 295.993L35.1325 296.259C35.0005 296.384 34.7912 296.381 34.6645 296.251C34.6445 296.229 34.6245 296.2 34.6112 296.175C21.7472 271.909 9.82318 249.416 0.033846 230.948C-0.038154 230.82 0.00851149 230.657 0.137845 230.584L0.144513 230.581C7.76985 226.639 15.5072 224.929 22.3072 224.021C29.1405 223.139 35.1392 223.111 40.0432 223.249C44.9512 223.413 48.7805 223.807 51.3765 224.127C52.6752 224.285 53.6658 224.437 54.3312 224.547C54.6472 224.604 54.8938 224.647 55.0845 224.681C55.2565 224.716 55.3378 224.737 55.3338 224.743C55.3298 224.748 55.2405 224.741 55.0725 224.721C54.8818 224.697 54.6352 224.668 54.3178 224.629C53.6498 224.547 52.6578 224.421 51.3578 224.289C48.7592 224.021 44.9325 223.679 40.0352 223.561C35.1418 223.469 29.1605 223.541 22.3645 224.459C15.6032 225.399 7.92317 227.137 0.403175 231.06L0.513842 230.693C10.3338 249.145 22.2925 271.619 35.1952 295.865L34.6725 295.781L34.9698 295.504C39.0738 291.829 43.5605 288.747 48.2272 286.204C52.9018 283.683 57.8032 281.753 62.7858 280.679C65.2778 280.155 67.7832 279.845 70.2645 279.749C72.7472 279.704 75.1965 279.873 77.5752 280.269C82.3232 281.125 86.7165 282.92 90.5272 285.273L90.1178 285.669C79.7365 267.555 71.0285 252.361 64.9018 241.669C61.8645 236.332 59.4685 232.12 57.8152 229.216C57.0112 227.787 56.3898 226.68 55.9552 225.907C55.7565 225.543 55.6018 225.26 55.4845 225.047C55.3805 224.852 55.3298 224.749 55.3338 224.743Z" fill="#263238"/>
<path d="M107.599 211.364C107.599 211.364 82.4474 195.333 55.7608 224.742L90.7994 285.522C90.7994 285.522 97.9501 260.853 139.781 269.433L107.599 211.364Z" fill="#F5F5F5"/>
<path d="M107.599 211.363C107.605 211.358 107.662 211.443 107.766 211.618C107.882 211.815 108.034 212.073 108.229 212.405C108.642 213.13 109.231 214.163 109.993 215.499C111.538 218.249 113.778 222.233 116.617 227.285C122.302 237.483 130.386 251.982 140.037 269.291C140.114 269.431 140.065 269.61 139.923 269.687C139.863 269.722 139.797 269.731 139.735 269.721L139.722 269.719C137.685 269.385 135.609 269.043 133.494 268.695C132.441 268.485 131.362 268.425 130.277 268.338C129.191 268.253 128.097 268.165 126.993 268.077C125.891 267.947 124.775 267.974 123.654 267.997C122.53 268.01 121.399 268.025 120.261 268.039C119.122 268.065 117.989 268.27 116.841 268.378C115.697 268.523 114.53 268.585 113.402 268.898C112.263 269.155 111.117 269.414 109.965 269.675C108.85 270.065 107.73 270.457 106.602 270.851C105.474 271.242 104.437 271.863 103.341 272.361C102.785 272.601 102.275 272.925 101.77 273.259L100.238 274.242C99.2274 274.918 98.3221 275.749 97.3674 276.515C96.5261 277.407 95.5794 278.213 94.8461 279.214C93.2728 281.107 91.9314 283.29 91.1168 285.614L91.1114 285.631C91.0501 285.803 90.8621 285.894 90.6888 285.834C90.6114 285.807 90.5501 285.753 90.5128 285.687C90.0661 284.914 89.5834 284.077 89.0994 283.237C76.7101 261.707 65.1661 241.645 55.5194 224.881C55.4568 224.774 55.4754 224.641 55.5541 224.554C61.4794 218.093 68.0181 213.162 74.5354 210.282C81.0381 207.333 87.3821 206.598 92.4408 206.923C97.5314 207.238 101.389 208.477 103.894 209.49C105.154 209.998 106.079 210.474 106.695 210.807C106.983 210.974 107.207 211.106 107.382 211.207C107.533 211.307 107.605 211.358 107.599 211.363C107.594 211.367 107.511 211.327 107.358 211.245C107.179 211.153 106.95 211.034 106.655 210.883C106.029 210.578 105.095 210.127 103.831 209.647C101.318 208.69 97.4714 207.51 92.4221 207.246C87.4048 206.971 81.1394 207.742 74.7208 210.698C68.2874 213.583 61.8301 218.493 55.9674 224.929L56.0034 224.602C65.6754 241.351 77.2514 261.395 89.6741 282.906C90.1568 283.746 90.6394 284.583 91.0861 285.357L90.4821 285.43C91.3528 282.942 92.7168 280.754 94.3354 278.795C95.0901 277.77 96.0581 276.943 96.9221 276.03C97.8994 275.245 98.8288 274.395 99.8621 273.705L101.43 272.702C101.946 272.361 102.467 272.03 103.034 271.785C104.153 271.277 105.214 270.645 106.363 270.249C107.511 269.847 108.653 269.45 109.787 269.055C110.958 268.791 112.122 268.53 113.278 268.27C114.426 267.954 115.605 267.894 116.765 267.749C117.927 267.641 119.075 267.435 120.226 267.411C121.377 267.398 122.519 267.386 123.655 267.373C124.789 267.353 125.915 267.33 127.026 267.462C128.138 267.553 129.241 267.643 130.335 267.733C131.429 267.822 132.517 267.886 133.575 268.101C135.702 268.455 137.791 268.805 139.839 269.147L139.526 269.574C129.975 252.238 121.977 237.717 116.35 227.502C113.567 222.41 111.373 218.393 109.858 215.621C109.126 214.261 108.558 213.207 108.159 212.467C107.981 212.123 107.841 211.855 107.733 211.65C107.639 211.466 107.594 211.369 107.599 211.363Z" fill="#263238"/>
<path d="M9.63918 199.479L47.1392 271.681C47.1392 271.681 77.6138 270.349 90.5138 285.199L55.7605 224.742C55.7605 224.742 35.3818 199.479 9.63918 199.479Z" fill="#F5F5F5"/>
<path d="M9.6397 199.479C9.6397 199.479 9.94903 199.485 10.5904 199.509C11.273 199.537 12.237 199.577 13.481 199.627C13.801 199.646 14.1424 199.65 14.4957 199.687C14.8424 199.745 15.2077 199.805 15.5904 199.868C16.3584 199.996 17.1944 200.134 18.097 200.285C19.0117 200.394 19.9517 200.701 20.969 200.97C21.9757 201.277 23.085 201.483 24.185 201.922C33.1464 204.905 45.1664 212.133 55.973 224.57L55.9917 224.598L55.997 224.606C65.8904 241.785 77.869 262.582 90.801 285.035C90.8917 285.193 90.837 285.395 90.6784 285.486C90.5464 285.562 90.385 285.537 90.281 285.434L90.2637 285.417C89.7997 284.956 89.297 284.455 88.793 283.954C86.0037 281.25 82.701 279.117 79.1944 277.61C75.7037 276.069 72.101 274.877 68.4677 274.096C61.2197 272.469 53.985 271.854 47.1517 271.99L47.1437 271.991C47.0224 271.993 46.9157 271.925 46.8637 271.823C35.933 250.626 26.593 232.515 19.973 219.677C16.7077 213.315 14.113 208.261 12.321 204.77C11.4504 203.065 10.7757 201.743 10.305 200.822C10.089 200.394 9.92237 200.062 9.79703 199.813C9.68503 199.587 9.6317 199.475 9.6397 199.479C9.64637 199.483 9.7157 199.606 9.84103 199.839C9.97837 200.094 10.161 200.435 10.3944 200.874C10.8877 201.806 11.5917 203.142 12.501 204.863C14.337 208.357 16.9944 213.415 20.3384 219.781C27.005 232.523 36.4077 250.498 47.413 271.538L47.125 271.371C54.037 271.221 61.289 271.827 68.6117 273.461C72.2784 274.245 75.9237 275.446 79.465 277.009C83.0237 278.537 86.3944 280.707 89.2557 283.481C89.7717 283.995 90.2877 284.509 90.7637 284.982L90.2264 285.365C77.333 262.89 65.3904 242.073 55.525 224.877L55.549 224.913C50.2717 218.706 44.5157 213.846 39.1357 210.059C33.705 206.327 28.5397 203.733 24.0837 202.217C22.993 201.769 21.8944 201.553 20.897 201.237C19.889 200.957 18.9557 200.639 18.049 200.519C17.153 200.357 16.3224 200.206 15.561 200.067C15.181 199.998 14.8184 199.931 14.473 199.869C14.129 199.826 13.8024 199.817 13.4944 199.79C11.2037 199.606 10.1397 199.519 9.6397 199.479Z" fill="#263238"/>
<path d="M126.687 404.256L127.493 405.595C128.397 407.096 129.711 408.307 131.282 409.084L132.682 409.777L131.345 410.581C129.842 411.485 128.631 412.8 127.854 414.372L127.162 415.771L126.357 414.433C125.454 412.932 124.138 411.72 122.567 410.944L121.167 410.251L122.506 409.447C124.007 408.543 125.218 407.228 125.995 405.656L126.687 404.256Z" fill="#202F67"/>
<path d="M52.7634 129.235L53.5688 130.573C54.4714 132.075 55.7874 133.286 57.3581 134.063L58.7581 134.755L57.4194 135.561C55.9181 136.463 54.7074 137.779 53.9301 139.35L53.2381 140.75L52.4328 139.411C51.5288 137.91 50.2141 136.699 48.6434 135.922L47.2434 135.23L48.5808 134.425C50.0834 133.521 51.2941 132.206 52.0701 130.635L52.7634 129.235Z" fill="#202F67"/>
<path d="M394.878 176.686L395.683 178.023C396.586 179.526 397.902 180.736 399.471 181.514L400.871 182.206L399.534 183.011C398.031 183.914 396.821 185.23 396.045 186.8L395.351 188.2L394.547 186.862C393.643 185.36 392.329 184.15 390.757 183.372L389.357 182.68L390.695 181.875C392.197 180.971 393.407 179.656 394.185 178.086L394.878 176.686Z" fill="#202F67"/>
<path d="M354.477 421.529L355.282 422.867C356.185 424.369 357.501 425.58 359.07 426.356L360.47 427.049L359.133 427.853C357.63 428.757 356.42 430.072 355.644 431.644L354.95 433.044L354.146 431.705C353.242 430.204 351.928 428.993 350.356 428.216L348.956 427.523L350.294 426.719C351.796 425.815 353.006 424.5 353.784 422.929L354.477 421.529Z" fill="#202F67"/>
<path d="M362.167 472.981L362.554 473.135C362.986 473.31 363.459 473.357 363.916 473.27L364.326 473.191L364.17 473.577C363.996 474.009 363.95 474.483 364.036 474.942L364.114 475.349L363.728 475.194C363.296 475.021 362.823 474.974 362.364 475.062L361.956 475.138L362.111 474.753C362.286 474.321 362.332 473.846 362.246 473.39L362.167 472.981Z" fill="#202F67"/>
<path d="M385.43 125.072L385.815 125.227C386.247 125.402 386.722 125.448 387.179 125.36L387.587 125.283L387.433 125.668C387.259 126.102 387.213 126.575 387.299 127.032L387.377 127.44L386.991 127.286C386.559 127.112 386.085 127.066 385.627 127.152L385.219 127.23L385.374 126.844C385.549 126.412 385.594 125.939 385.509 125.48L385.43 125.072Z" fill="#202F67"/>
<path d="M67.7966 93.3068L68.182 93.4615C68.614 93.6361 69.0873 93.6815 69.546 93.5948L69.954 93.5175L69.7993 93.9028C69.6246 94.3348 69.578 94.8081 69.666 95.2668L69.7433 95.6748L69.358 95.5201C68.9246 95.3455 68.4513 95.3001 67.9926 95.3868L67.586 95.4641L67.7406 95.0788C67.914 94.6455 67.9606 94.1721 67.874 93.7148L67.7966 93.3068Z" fill="#202F67"/>
<path d="M106.999 364.202L107.384 364.357C107.816 364.532 108.291 364.577 108.748 364.49L109.156 364.413L109.001 364.798C108.828 365.23 108.781 365.705 108.868 366.164L108.945 366.57L108.56 366.416C108.128 366.241 107.653 366.196 107.196 366.284L106.788 366.36L106.943 365.974C107.116 365.542 107.164 365.068 107.076 364.61L106.999 364.202Z" fill="#202F67"/>
<path d="M149.499 468.91C149.499 468.91 149.383 469.049 149.135 469.3C148.868 469.564 148.5 469.93 148.027 470.4C147.024 471.377 145.576 472.786 143.719 474.596C139.936 478.244 134.487 483.5 127.736 490.012L127.8 489.853C128.559 506.585 129.592 529.324 130.741 554.61L130.767 555.184L130.289 554.865C128.456 553.64 126.496 552.328 124.519 551.006C111.355 542.194 98.8918 533.85 87.9252 526.508L87.8505 526.458L87.8225 526.374C82.3625 510.069 77.7558 496.316 74.5065 486.61C72.9105 481.784 71.6465 477.965 70.7745 475.325C70.3572 474.036 70.0332 473.034 69.8052 472.33C69.7052 472.005 69.6265 471.753 69.5665 471.557C69.5145 471.382 69.4918 471.293 69.4985 471.292C69.5052 471.289 69.5425 471.374 69.6078 471.544C69.6772 471.736 69.7692 471.985 69.8865 472.304C70.1318 473.001 70.4812 473.994 70.9305 475.272C71.8358 477.9 73.1465 481.704 74.8038 486.51C78.1025 496.2 82.7758 509.93 88.3185 526.208L88.2158 526.073C99.1932 533.401 111.665 541.728 124.841 550.524C126.819 551.845 128.779 553.157 130.612 554.382L130.161 554.637C129.079 529.345 128.105 506.605 127.388 489.872L127.384 489.777L127.452 489.714C134.256 483.26 139.749 478.049 143.561 474.432C145.452 472.657 146.924 471.273 147.945 470.314C148.436 469.862 148.817 469.512 149.093 469.256C149.355 469.02 149.499 468.91 149.499 468.91Z" fill="#202F67"/>
<path d="M132.464 546.996L132.348 550.771L135.391 553.007L131.765 554.063L130.577 557.648L128.453 554.526L124.677 554.506L126.991 551.52L125.843 547.922L129.396 549.199L132.464 546.996Z" fill="#202F67"/>
<path d="M88.3845 521.377L88.4578 523.82L90.5125 525.145L88.2112 525.969L87.5858 528.333L86.0898 526.4L83.6498 526.534L85.0258 524.516L84.1432 522.236L86.4898 522.921L88.3845 521.377Z" fill="#202F67"/>
<path d="M69.3976 466.808L71.2402 469.174L74.2362 468.998L72.5536 471.482L73.6482 474.277L70.7642 473.445L68.4456 475.348L68.3456 472.349L65.8189 470.732L68.6402 469.71L69.3976 466.808Z" fill="#202F67"/>
<path d="M147.655 464.44L149.499 466.807L152.493 466.631L150.812 469.115L151.905 471.91L149.023 471.078L146.704 472.98L146.603 469.982L144.076 468.364L146.897 467.343L147.655 464.44Z" fill="#202F67"/>
<path d="M127.111 487.301L128.287 488.812L130.199 488.7L129.125 490.285L129.823 492.068L127.983 491.539L126.503 492.752L126.44 490.839L124.827 489.807L126.627 489.155L127.111 487.301Z" fill="#202F67"/>
<path d="M83.1392 359.87C83.1392 374.557 71.2325 386.462 56.5458 386.462C41.8605 386.462 29.9538 374.557 29.9538 359.87C29.9538 345.183 41.8605 333.278 56.5458 333.278C71.2325 333.278 83.1392 345.183 83.1392 359.87Z" fill="#202F67"/>
<g opacity="0.300003">
<g opacity="0.300003">
<path opacity="0.300003" d="M53.0896 368.17C53.0896 370.565 51.1469 372.508 48.7523 372.508C46.3576 372.508 44.4149 370.565 44.4149 368.17C44.4149 365.774 46.3576 363.833 48.7523 363.833C51.1469 363.833 53.0896 365.774 53.0896 368.17Z" fill="white"/>
</g>
</g>
<g opacity="0.300003">
<g opacity="0.300003">
<path opacity="0.300003" d="M46.938 355.655C46.938 357.048 45.8086 358.178 44.4153 358.178C43.022 358.178 41.8926 357.048 41.8926 355.655C41.8926 354.26 43.022 353.131 44.4153 353.131C45.8086 353.131 46.938 354.26 46.938 355.655Z" fill="white"/>
</g>
</g>
<path d="M30.7485 366.337C30.8672 366.799 7.98851 388.751 13.8858 393.427C19.7818 398.104 44.5912 386.107 65.7405 369.025C86.8885 351.944 106.207 331.201 100.919 325.711C95.6325 320.22 69.2032 336.476 69.2032 336.476L72.3618 338.491C72.3618 338.491 88.3419 328.239 93.3965 332.219C98.4499 336.199 84.0418 351.74 63.7072 366.585C43.3712 381.429 23.7232 391.851 20.6725 387.783C17.6218 383.716 32.0152 370.149 32.0152 370.149L30.7485 366.337Z" fill="#202F67"/>
<g opacity="0.300003">
<g opacity="0.300003">
<path opacity="0.300003" d="M30.7485 366.337C30.8672 366.799 7.98851 388.751 13.8858 393.427C19.7818 398.104 44.5912 386.107 65.7405 369.025C86.8885 351.944 106.207 331.201 100.919 325.711C95.6325 320.22 69.2032 336.476 69.2032 336.476L72.3618 338.491C72.3618 338.491 88.3419 328.239 93.3965 332.219C98.4499 336.199 84.0418 351.74 63.7072 366.585C43.3712 381.429 23.7232 391.851 20.6725 387.783C17.6218 383.716 32.0152 370.149 32.0152 370.149L30.7485 366.337Z" fill="black"/>
</g>
</g>
<g opacity="0.300003">
<g opacity="0.300003">
<path opacity="0.300003" d="M41.8924 341.138C42.107 341.394 40.3044 342.925 38.2644 345.995C36.2244 349.018 34.087 353.807 33.971 359.361C33.8657 364.917 35.8097 369.786 37.7284 372.889C39.6444 376.038 41.3844 377.639 41.1604 377.887C41.0257 378.073 38.887 376.837 36.5217 373.703C35.3457 372.147 34.171 370.102 33.2924 367.651C32.411 365.206 31.867 362.343 31.9137 359.319C31.9884 356.297 32.6457 353.458 33.623 351.053C34.599 348.638 35.8537 346.642 37.091 345.133C39.579 342.095 41.7644 340.946 41.8924 341.138Z" fill="white"/>
</g>
</g>
<path d="M327.649 110.269C327.937 98.1579 337.988 88.5713 350.1 88.8579C362.212 89.1459 371.797 99.1979 371.51 111.309C371.222 123.421 361.172 133.007 349.06 132.719C336.948 132.433 327.361 122.381 327.649 110.269Z" fill="#202F67"/>
<g opacity="0.399994">
<g opacity="0.399994">
<path opacity="0.399994" d="M356.727 102.387C356.774 100.413 358.414 98.8488 360.388 98.8955C362.366 98.9421 363.927 100.582 363.88 102.557C363.834 104.533 362.195 106.095 360.219 106.049C358.244 106.002 356.68 104.362 356.727 102.387Z" fill="black"/>
</g>
</g>
<g opacity="0.399994">
<g opacity="0.399994">
<path opacity="0.399994" d="M363.882 110.74C363.91 109.591 364.863 108.681 366.013 108.709C367.162 108.736 368.071 109.689 368.043 110.839C368.017 111.988 367.063 112.897 365.914 112.869C364.765 112.843 363.855 111.889 363.882 110.74Z" fill="black"/>
</g>
</g>
<g opacity="0.399994">
<g opacity="0.399994">
<path opacity="0.399994" d="M361.09 117.131C361.513 117.14 361.849 117.492 361.84 117.916C361.829 118.34 361.477 118.675 361.054 118.666C360.629 118.655 360.294 118.303 360.305 117.88C360.314 117.456 360.666 117.12 361.09 117.131Z" fill="black"/>
</g>
</g>
</svg>
