<svg width="24" height="24" viewBox="0 0 24 24" fill="none" xmlns="http://www.w3.org/2000/svg">
<path d="M19.79 15.35V8.65C19.79 7.94 19.41 7.28 18.79 6.92L13 3.58C12.38 3.22 11.62 3.22 11 3.58L5.21 6.93C4.59 7.29 4.21 7.95 4.21 8.66V15.35C4.21 16.06 4.59 16.72 5.21 17.08L11 20.43C11.62 20.79 12.38 20.79 13 20.43L18.79 17.08C19.41 16.72 19.79 16.06 19.79 15.35Z" stroke="#202F67" stroke-width="2" stroke-miterlimit="10" stroke-linecap="round" stroke-linejoin="round"/>
<path d="M12 9V12" stroke="#202F67" stroke-width="2" stroke-miterlimit="10" stroke-linecap="round" stroke-linejoin="round"/>
<path d="M12 16C12.5523 16 13 15.5523 13 15C13 14.4477 12.5523 14 12 14C11.4477 14 11 14.4477 11 15C11 15.5523 11.4477 16 12 16Z" fill="#202F67"/>
</svg>
