<svg width="24" height="24" viewBox="0 0 24 24" fill="none" xmlns="http://www.w3.org/2000/svg">
<path d="M9 16C12.3137 16 15 13.3137 15 10C15 6.68629 12.3137 4 9 4C5.68629 4 3 6.68629 3 10C3 13.3137 5.68629 16 9 16Z" stroke="#2A2A2A" stroke-width="2" stroke-miterlimit="10" stroke-linecap="round" stroke-linejoin="round"/>
<path d="M9 8V10" stroke="#2A2A2A" stroke-width="2" stroke-miterlimit="10" stroke-linecap="round" stroke-linejoin="round"/>
<path d="M10.41 11.41L9 10" stroke="#2A2A2A" stroke-width="2" stroke-miterlimit="10" stroke-linecap="round" stroke-linejoin="round"/>
<path d="M5 20H21" stroke="#2A2A2A" stroke-width="2" stroke-miterlimit="10" stroke-linecap="round" stroke-linejoin="round"/>
<path d="M15.7 16H21" stroke="#2A2A2A" stroke-width="2" stroke-miterlimit="10" stroke-linecap="round" stroke-linejoin="round"/>
<path d="M17.78 12H21" stroke="#2A2A2A" stroke-width="2" stroke-miterlimit="10" stroke-linecap="round" stroke-linejoin="round"/>
<path d="M9 16C12.3137 16 15 13.3137 15 10C15 6.68629 12.3137 4 9 4C5.68629 4 3 6.68629 3 10C3 13.3137 5.68629 16 9 16Z" stroke="#2A2A2A" stroke-width="2" stroke-miterlimit="10" stroke-linecap="round" stroke-linejoin="round"/>
</svg>
