<svg width="24" height="24" viewBox="0 0 24 24" fill="none" xmlns="http://www.w3.org/2000/svg">
<path d="M14 10V9.85C14 8.83 13.17 8 12.15 8H11.86C10.83 8 10 8.83 10 9.85C10 10.55 10.4 11.19 11.02 11.51L12.97 12.49C13.6 12.8 14 13.44 14 14.15C14 15.17 13.17 16 12.15 16H11.86C10.83 16 10 15.17 10 14.15V14" stroke="#757575" stroke-width="2" stroke-miterlimit="10" stroke-linecap="round" stroke-linejoin="round"/>
<path d="M12 7V8" stroke="#757575" stroke-width="2" stroke-miterlimit="10" stroke-linecap="round" stroke-linejoin="round"/>
<path d="M12 16V17" stroke="#757575" stroke-width="2" stroke-miterlimit="10" stroke-linecap="round" stroke-linejoin="round"/>
<path d="M19.79 15.35V8.65C19.79 7.94 19.41 7.28 18.79 6.92L13 3.58C12.38 3.22 11.62 3.22 11 3.58L5.21 6.93C4.59 7.29 4.21 7.95 4.21 8.66V15.35C4.21 16.06 4.59 16.72 5.21 17.08L11 20.43C11.62 20.79 12.38 20.79 13 20.43L18.79 17.08C19.41 16.72 19.79 16.06 19.79 15.35Z" stroke="#757575" stroke-width="2" stroke-miterlimit="10" stroke-linecap="round" stroke-linejoin="round"/>
</svg>
