<svg width="24" height="24" viewBox="0 0 24 24" fill="none" xmlns="http://www.w3.org/2000/svg">
<path d="M15 21C15 17.7 12.3 15 9 15C5.7 15 3 17.7 3 21" stroke="#202F67" stroke-width="2" stroke-miterlimit="10" stroke-linecap="round" stroke-linejoin="round"/>
<path d="M9 12C10.6569 12 12 10.6569 12 9C12 7.34315 10.6569 6 9 6C7.34315 6 6 7.34315 6 9C6 10.6569 7.34315 12 9 12Z" stroke="#202F67" stroke-width="2" stroke-miterlimit="10" stroke-linecap="round" stroke-linejoin="round"/>
<path d="M18 5C18.5523 5 19 4.55228 19 4C19 3.44772 18.5523 3 18 3C17.4477 3 17 3.44772 17 4C17 4.55228 17.4477 5 18 5Z" stroke="#202F67" stroke-width="2" stroke-miterlimit="10" stroke-linecap="round" stroke-linejoin="round"/>
<path d="M21 11C21 9.3 19.7 8 18 8C16.3 8 15 9.3 15 11" stroke="#202F67" stroke-width="2" stroke-miterlimit="10" stroke-linecap="round" stroke-linejoin="round"/>
</svg>
