<svg width="24" height="24" viewBox="0 0 24 24" fill="none" xmlns="http://www.w3.org/2000/svg">
<path d="M19 12C19 13.1 19.9 14 21 14V16C21 17.1 20.1 18 19 18H5C3.9 18 3 17.1 3 16V14C4.1 14 5 13.1 5 12C5 10.9 4.1 10 3 10V8C3 6.9 3.9 6 5 6H19C20.1 6 21 6.9 21 8V10C19.9 10 19 10.9 19 12Z" stroke="#202F67" stroke-width="2" stroke-miterlimit="10" stroke-linecap="round" stroke-linejoin="round"/>
<path d="M14 9V12" stroke="#202F67" stroke-width="2" stroke-miterlimit="10" stroke-linecap="round" stroke-linejoin="round"/>
<path d="M14 16C14.5523 16 15 15.5523 15 15C15 14.4477 14.5523 14 14 14C13.4477 14 13 14.4477 13 15C13 15.5523 13.4477 16 14 16Z" fill="#202F67"/>
</svg>
